%TF.GenerationSoftware,KiCad,Pcbnew,(6.0.5)*%
%TF.CreationDate,2022-06-01T19:50:55+01:00*%
%TF.ProjectId,OOEB-OBBB-PROJ-ARDC-SHEN-STAN-01,4f4f4542-2d4f-4424-9242-2d50524f4a2d,rev?*%
%TF.SameCoordinates,Original*%
%TF.FileFunction,Copper,L2,Bot*%
%TF.FilePolarity,Positive*%
%FSLAX46Y46*%
G04 Gerber Fmt 4.6, Leading zero omitted, Abs format (unit mm)*
G04 Created by KiCad (PCBNEW (6.0.5)) date 2022-06-01 19:50:55*
%MOMM*%
%LPD*%
G01*
G04 APERTURE LIST*
%TA.AperFunction,ComponentPad*%
%ADD10R,1.700000X1.700000*%
%TD*%
%TA.AperFunction,ComponentPad*%
%ADD11C,1.600000*%
%TD*%
%TA.AperFunction,ComponentPad*%
%ADD12O,1.600000X1.600000*%
%TD*%
%TA.AperFunction,ComponentPad*%
%ADD13O,1.700000X1.700000*%
%TD*%
%TA.AperFunction,Conductor*%
%ADD14C,0.250000*%
%TD*%
G04 APERTURE END LIST*
D10*
%TO.P,5V1,1,Pin_1*%
%TO.N,+5V*%
X10160000Y3160000D03*
%TD*%
D11*
%TO.P,RSDA1,1*%
%TO.N,+5V*%
X17780000Y6970000D03*
D12*
%TO.P,RSDA1,2*%
%TO.N,Net-(A4-SDA1-Pad1)*%
X17780000Y14590000D03*
%TD*%
%TO.P,RSCL1,2*%
%TO.N,Net-(A5-SCL1-Pad1)*%
X15240000Y14590000D03*
D11*
%TO.P,RSCL1,1*%
%TO.N,+5V*%
X15240000Y6970000D03*
%TD*%
D13*
%TO.P,TX1,2,Pin_2*%
%TO.N,GND*%
X-12700000Y10780000D03*
D10*
%TO.P,TX1,1,Pin_1*%
%TO.N,+5V*%
X-10160000Y10780000D03*
%TD*%
%TO.P,SDA1,1,Pin_1*%
%TO.N,Net-(A4-SDA1-Pad1)*%
X-2635489Y19670000D03*
D13*
%TO.P,SDA1,2,Pin_2*%
%TO.N,+5V*%
X-2635489Y22210000D03*
%TO.P,SDA1,3,Pin_3*%
%TO.N,GND*%
X-2635489Y24750000D03*
%TD*%
D10*
%TO.P,SDA0,1,Pin_1*%
%TO.N,Net-(A4-SDA1-Pad1)*%
X5080000Y19670000D03*
D13*
%TO.P,SDA0,2,Pin_2*%
%TO.N,+5V*%
X5080000Y22210000D03*
%TO.P,SDA0,3,Pin_3*%
%TO.N,GND*%
X5080000Y24750000D03*
%TD*%
D10*
%TO.P,I2C0,1,Pin_1*%
%TO.N,Net-(A5-SCL1-Pad1)*%
X-5175489Y19670000D03*
D13*
%TO.P,I2C0,2,Pin_2*%
%TO.N,+5V*%
X-5175489Y22210000D03*
%TO.P,I2C0,3,Pin_3*%
%TO.N,GND*%
X-5175489Y24750000D03*
%TD*%
D10*
%TO.P,I2C1,1,Pin_1*%
%TO.N,Net-(A5-SCL1-Pad1)*%
X2540000Y19670000D03*
D13*
%TO.P,I2C1,2,Pin_2*%
%TO.N,+5V*%
X2540000Y22210000D03*
%TO.P,I2C1,3,Pin_3*%
%TO.N,GND*%
X2540000Y24750000D03*
%TD*%
D10*
%TO.P,RX0,1,Pin_1*%
%TO.N,+5V*%
X-10160000Y8240000D03*
D13*
%TO.P,RX0,2,Pin_2*%
%TO.N,GND*%
X-12700000Y8240000D03*
%TD*%
D10*
%TO.P,GND1,1,Pin_1*%
%TO.N,GND*%
X10160000Y8240000D03*
%TD*%
%TO.P,D13,1,Pin_1*%
%TO.N,+5V*%
X10160000Y-24780000D03*
D13*
%TO.P,D13,2,Pin_2*%
%TO.N,GND*%
X12700000Y-24780000D03*
%TD*%
%TO.P,D12,2,Pin_2*%
%TO.N,GND*%
X-12700000Y-24780000D03*
D10*
%TO.P,D12,1,Pin_1*%
%TO.N,+5V*%
X-10160000Y-24780000D03*
%TD*%
D13*
%TO.P,D11,2,Pin_2*%
%TO.N,GND*%
X-12700000Y-22240000D03*
D10*
%TO.P,D11,1,Pin_1*%
%TO.N,+5V*%
X-10160000Y-22240000D03*
%TD*%
D13*
%TO.P,D10,2,Pin_2*%
%TO.N,GND*%
X-12700000Y-19700000D03*
D10*
%TO.P,D10,1,Pin_1*%
%TO.N,+5V*%
X-10160000Y-19700000D03*
%TD*%
D13*
%TO.P,D9,2,Pin_2*%
%TO.N,GND*%
X-12700000Y-17160000D03*
D10*
%TO.P,D9,1,Pin_1*%
%TO.N,+5V*%
X-10160000Y-17160000D03*
%TD*%
D13*
%TO.P,D8,2,Pin_2*%
%TO.N,GND*%
X-12700000Y-14620000D03*
D10*
%TO.P,D8,1,Pin_1*%
%TO.N,+5V*%
X-10160000Y-14620000D03*
%TD*%
D13*
%TO.P,D7,2,Pin_2*%
%TO.N,GND*%
X-12700000Y-12080000D03*
D10*
%TO.P,D7,1,Pin_1*%
%TO.N,+5V*%
X-10160000Y-12080000D03*
%TD*%
D13*
%TO.P,D6,2,Pin_2*%
%TO.N,GND*%
X-12700000Y-9540000D03*
D10*
%TO.P,D6,1,Pin_1*%
%TO.N,+5V*%
X-10160000Y-9540000D03*
%TD*%
%TO.P,D5-1,1,Pin_1*%
%TO.N,Net-(D5-1-Pad1)*%
X-10160000Y-7000000D03*
%TD*%
%TO.P,D5,1,Pin_1*%
%TO.N,Net-(D5-1-Pad1)*%
X-17780000Y-12095000D03*
D13*
%TO.P,D5,2,Pin_2*%
%TO.N,+5V*%
X-17780000Y-14635000D03*
%TO.P,D5,3,Pin_3*%
%TO.N,GND*%
X-17780000Y-17175000D03*
%TD*%
D10*
%TO.P,D4-1,1,Pin_1*%
%TO.N,Net-(D4-1-Pad1)*%
X-10160000Y-4460000D03*
%TD*%
D13*
%TO.P,D4,3,Pin_3*%
%TO.N,GND*%
X-15240000Y5700000D03*
%TO.P,D4,2,Pin_2*%
%TO.N,+5V*%
X-12700000Y5700000D03*
D10*
%TO.P,D4,1,Pin_1*%
%TO.N,Net-(D4-1-Pad1)*%
X-10160000Y5700000D03*
%TD*%
%TO.P,D3-1,1,Pin_1*%
%TO.N,Net-(D3-Pad1)*%
X-10160000Y-1920000D03*
%TD*%
D13*
%TO.P,D3,3,Pin_3*%
%TO.N,GND*%
X-15240000Y3160000D03*
%TO.P,D3,2,Pin_2*%
%TO.N,+5V*%
X-12700000Y3160000D03*
D10*
%TO.P,D3,1,Pin_1*%
%TO.N,Net-(D3-Pad1)*%
X-10160000Y3160000D03*
%TD*%
D13*
%TO.P,D2,2,Pin_2*%
%TO.N,GND*%
X-10160000Y620000D03*
D10*
%TO.P,D2,1,Pin_1*%
%TO.N,+5V*%
X-12700000Y620000D03*
%TD*%
D13*
%TO.P,A7,2,Pin_2*%
%TO.N,GND*%
X12700000Y620000D03*
D10*
%TO.P,A7,1,Pin_1*%
%TO.N,+5V*%
X10160000Y620000D03*
%TD*%
%TO.P,A6-1,1,Pin_1*%
%TO.N,Net-(A6-Pad1)*%
X10160000Y-1920000D03*
%TD*%
%TO.P,A5-SCL1,1,Pin_1*%
%TO.N,Net-(A5-SCL1-Pad1)*%
X10160000Y-4460000D03*
%TD*%
%TO.P,A4-SDA1,1,Pin_1*%
%TO.N,Net-(A4-SDA1-Pad1)*%
X10160000Y-7000000D03*
%TD*%
D13*
%TO.P,A3,2,Pin_2*%
%TO.N,GND*%
X12700000Y-9540000D03*
D10*
%TO.P,A3,1,Pin_1*%
%TO.N,+5V*%
X10160000Y-9540000D03*
%TD*%
D13*
%TO.P,A2,2,Pin_2*%
%TO.N,GND*%
X12700000Y-12080000D03*
D10*
%TO.P,A2,1,Pin_1*%
%TO.N,+5V*%
X10160000Y-12080000D03*
%TD*%
D13*
%TO.P,A1,2,Pin_2*%
%TO.N,GND*%
X12700000Y-14620000D03*
D10*
%TO.P,A1,1,Pin_1*%
%TO.N,+5V*%
X10160000Y-14620000D03*
%TD*%
D13*
%TO.P,A0,2,Pin_2*%
%TO.N,GND*%
X12700000Y-17160000D03*
D10*
%TO.P,A0,1,Pin_1*%
%TO.N,+5V*%
X10160000Y-17160000D03*
%TD*%
D14*
%TO.N,+5V*%
X6350000Y22210000D02*
X5080000Y22210000D01*
%TO.N,GND*%
X-12308990Y4430000D02*
X-13970000Y4430000D01*
X-13970000Y4430000D02*
X-15240000Y5700000D01*
X-11525489Y3646499D02*
X-12308990Y4430000D01*
X-11525489Y1985489D02*
X-11525489Y3646499D01*
X-10160000Y620000D02*
X-11525489Y1985489D01*
%TO.N,+5V*%
X15240000Y10780000D02*
X15240000Y6970000D01*
X12700000Y13320000D02*
X15240000Y10780000D01*
X12700000Y15860000D02*
X12700000Y13320000D01*
X6350000Y22210000D02*
X12700000Y15860000D01*
X-12700000Y3160000D02*
X-12700000Y620000D01*
X15240000Y6970000D02*
X17780000Y6970000D01*
X11334511Y-8365489D02*
X10160000Y-9540000D01*
X11334511Y-554511D02*
X11334511Y-8365489D01*
X10160000Y620000D02*
X11334511Y-554511D01*
X-10160000Y-9540000D02*
X-10160000Y-24780000D01*
X-12700000Y-7000000D02*
X-10160000Y-9540000D01*
X-12700000Y620000D02*
X-12700000Y-7000000D01*
%TD*%
%TA.AperFunction,Conductor*%
%TO.N,GND*%
G36*
X15970018Y27990000D02*
G01*
X15984851Y27987690D01*
X15984855Y27987690D01*
X15993724Y27986309D01*
X16014183Y27988984D01*
X16036007Y27989928D01*
X16385965Y27974648D01*
X16396913Y27973690D01*
X16774498Y27923981D01*
X16785307Y27922074D01*
X17157114Y27839647D01*
X17167731Y27836802D01*
X17530939Y27722282D01*
X17541254Y27718529D01*
X17893123Y27572780D01*
X17903067Y27568142D01*
X18240867Y27392295D01*
X18250387Y27386799D01*
X18571574Y27182180D01*
X18580578Y27175876D01*
X18882716Y26944038D01*
X18891137Y26936972D01*
X19171914Y26679686D01*
X19179686Y26671914D01*
X19436972Y26391137D01*
X19444038Y26382716D01*
X19675876Y26080578D01*
X19682180Y26071574D01*
X19886799Y25750387D01*
X19892294Y25740868D01*
X20060173Y25418377D01*
X20068138Y25403076D01*
X20072780Y25393123D01*
X20218526Y25041261D01*
X20222282Y25030939D01*
X20257194Y24920215D01*
X20336802Y24667732D01*
X20339647Y24657114D01*
X20422073Y24285315D01*
X20423981Y24274498D01*
X20453882Y24047373D01*
X20473690Y23896914D01*
X20474648Y23885965D01*
X20487536Y23590797D01*
X20489603Y23543448D01*
X20488223Y23518571D01*
X20486309Y23506276D01*
X20487473Y23497374D01*
X20487473Y23497372D01*
X20490436Y23474717D01*
X20491500Y23458379D01*
X20491500Y-23450633D01*
X20490000Y-23470018D01*
X20487690Y-23484851D01*
X20487690Y-23484855D01*
X20486309Y-23493724D01*
X20488984Y-23514183D01*
X20489928Y-23536007D01*
X20478295Y-23802433D01*
X20474648Y-23885964D01*
X20473690Y-23896914D01*
X20423982Y-24274490D01*
X20422074Y-24285307D01*
X20369352Y-24523124D01*
X20339647Y-24657114D01*
X20336802Y-24667732D01*
X20222285Y-25030932D01*
X20218529Y-25041254D01*
X20115439Y-25290136D01*
X20072784Y-25393114D01*
X20068142Y-25403067D01*
X19925342Y-25677384D01*
X19892295Y-25740867D01*
X19886800Y-25750385D01*
X19882060Y-25757826D01*
X19682180Y-26071574D01*
X19675876Y-26080578D01*
X19444038Y-26382716D01*
X19436972Y-26391137D01*
X19179686Y-26671914D01*
X19171914Y-26679686D01*
X18891137Y-26936972D01*
X18882716Y-26944038D01*
X18580578Y-27175876D01*
X18571574Y-27182180D01*
X18250387Y-27386799D01*
X18240868Y-27392294D01*
X17903067Y-27568142D01*
X17893123Y-27572780D01*
X17541254Y-27718529D01*
X17530939Y-27722282D01*
X17167732Y-27836802D01*
X17157115Y-27839647D01*
X16785307Y-27922074D01*
X16774498Y-27923981D01*
X16413564Y-27971498D01*
X16396914Y-27973690D01*
X16385965Y-27974648D01*
X16043446Y-27989603D01*
X16018571Y-27988223D01*
X16006276Y-27986309D01*
X15997374Y-27987473D01*
X15997372Y-27987473D01*
X15982323Y-27989441D01*
X15974714Y-27990436D01*
X15958379Y-27991500D01*
X10024500Y-27991500D01*
X9956379Y-27971498D01*
X9909886Y-27917842D01*
X9898500Y-27865500D01*
X9898500Y-26264500D01*
X9918502Y-26196379D01*
X9972158Y-26149886D01*
X10024500Y-26138500D01*
X11058134Y-26138500D01*
X11120316Y-26131745D01*
X11256705Y-26080615D01*
X11373261Y-25993261D01*
X11460615Y-25876705D01*
X11504798Y-25758848D01*
X11547440Y-25702084D01*
X11614001Y-25677384D01*
X11683350Y-25692592D01*
X11718017Y-25720580D01*
X11743218Y-25749673D01*
X11750580Y-25756883D01*
X11914434Y-25892916D01*
X11922881Y-25898831D01*
X12106756Y-26006279D01*
X12116042Y-26010729D01*
X12315001Y-26086703D01*
X12324899Y-26089579D01*
X12428250Y-26110606D01*
X12442299Y-26109410D01*
X12446000Y-26099065D01*
X12446000Y-26098517D01*
X12954000Y-26098517D01*
X12958064Y-26112359D01*
X12971478Y-26114393D01*
X12978184Y-26113534D01*
X12988262Y-26111392D01*
X13192255Y-26050191D01*
X13201842Y-26046433D01*
X13393095Y-25952739D01*
X13401945Y-25947464D01*
X13575328Y-25823792D01*
X13583200Y-25817139D01*
X13734052Y-25666812D01*
X13740730Y-25658965D01*
X13865003Y-25486020D01*
X13870313Y-25477183D01*
X13964670Y-25286267D01*
X13968469Y-25276672D01*
X14030377Y-25072910D01*
X14032555Y-25062837D01*
X14033986Y-25051962D01*
X14031775Y-25037778D01*
X14018617Y-25034000D01*
X12972115Y-25034000D01*
X12956876Y-25038475D01*
X12955671Y-25039865D01*
X12954000Y-25047548D01*
X12954000Y-26098517D01*
X12446000Y-26098517D01*
X12446000Y-24507885D01*
X12954000Y-24507885D01*
X12958475Y-24523124D01*
X12959865Y-24524329D01*
X12967548Y-24526000D01*
X14018344Y-24526000D01*
X14031875Y-24522027D01*
X14033180Y-24512947D01*
X13991214Y-24345875D01*
X13987894Y-24336124D01*
X13902972Y-24140814D01*
X13898105Y-24131739D01*
X13782426Y-23952926D01*
X13776136Y-23944757D01*
X13632806Y-23787240D01*
X13625273Y-23780215D01*
X13458139Y-23648222D01*
X13449552Y-23642517D01*
X13263117Y-23539599D01*
X13253705Y-23535369D01*
X13052959Y-23464280D01*
X13042988Y-23461646D01*
X12971837Y-23448972D01*
X12958540Y-23450432D01*
X12954000Y-23464989D01*
X12954000Y-24507885D01*
X12446000Y-24507885D01*
X12446000Y-23463102D01*
X12442082Y-23449758D01*
X12427806Y-23447771D01*
X12389324Y-23453660D01*
X12379288Y-23456051D01*
X12176868Y-23522212D01*
X12167359Y-23526209D01*
X11978463Y-23624542D01*
X11969738Y-23630036D01*
X11799433Y-23757905D01*
X11791726Y-23764748D01*
X11714478Y-23845584D01*
X11652954Y-23881014D01*
X11582042Y-23877557D01*
X11524255Y-23836311D01*
X11505402Y-23802763D01*
X11463767Y-23691703D01*
X11460615Y-23683295D01*
X11373261Y-23566739D01*
X11256705Y-23479385D01*
X11120316Y-23428255D01*
X11058134Y-23421500D01*
X10024500Y-23421500D01*
X9956379Y-23401498D01*
X9909886Y-23347842D01*
X9898500Y-23295500D01*
X9898500Y-18644500D01*
X9918502Y-18576379D01*
X9972158Y-18529886D01*
X10024500Y-18518500D01*
X11058134Y-18518500D01*
X11120316Y-18511745D01*
X11256705Y-18460615D01*
X11373261Y-18373261D01*
X11460615Y-18256705D01*
X11499911Y-18151883D01*
X11504798Y-18138848D01*
X11547440Y-18082084D01*
X11614001Y-18057384D01*
X11683350Y-18072592D01*
X11718017Y-18100580D01*
X11743218Y-18129673D01*
X11750580Y-18136883D01*
X11914434Y-18272916D01*
X11922881Y-18278831D01*
X12106756Y-18386279D01*
X12116042Y-18390729D01*
X12315001Y-18466703D01*
X12324899Y-18469579D01*
X12428250Y-18490606D01*
X12442299Y-18489410D01*
X12446000Y-18479065D01*
X12446000Y-18478517D01*
X12954000Y-18478517D01*
X12958064Y-18492359D01*
X12971478Y-18494393D01*
X12978184Y-18493534D01*
X12988262Y-18491392D01*
X13192255Y-18430191D01*
X13201842Y-18426433D01*
X13393095Y-18332739D01*
X13401945Y-18327464D01*
X13575328Y-18203792D01*
X13583200Y-18197139D01*
X13734052Y-18046812D01*
X13740730Y-18038965D01*
X13865003Y-17866020D01*
X13870313Y-17857183D01*
X13964670Y-17666267D01*
X13968469Y-17656672D01*
X14030377Y-17452910D01*
X14032555Y-17442837D01*
X14033986Y-17431962D01*
X14031775Y-17417778D01*
X14018617Y-17414000D01*
X12972115Y-17414000D01*
X12956876Y-17418475D01*
X12955671Y-17419865D01*
X12954000Y-17427548D01*
X12954000Y-18478517D01*
X12446000Y-18478517D01*
X12446000Y-16887885D01*
X12954000Y-16887885D01*
X12958475Y-16903124D01*
X12959865Y-16904329D01*
X12967548Y-16906000D01*
X14018344Y-16906000D01*
X14031875Y-16902027D01*
X14033180Y-16892947D01*
X13991214Y-16725875D01*
X13987894Y-16716124D01*
X13902972Y-16520814D01*
X13898105Y-16511739D01*
X13782426Y-16332926D01*
X13776136Y-16324757D01*
X13632806Y-16167240D01*
X13625273Y-16160215D01*
X13458139Y-16028222D01*
X13449552Y-16022517D01*
X13412116Y-16001851D01*
X13362146Y-15951419D01*
X13347374Y-15881976D01*
X13372490Y-15815571D01*
X13399842Y-15788964D01*
X13575327Y-15663792D01*
X13583200Y-15657139D01*
X13734052Y-15506812D01*
X13740730Y-15498965D01*
X13865003Y-15326020D01*
X13870313Y-15317183D01*
X13964670Y-15126267D01*
X13968469Y-15116672D01*
X14030377Y-14912910D01*
X14032555Y-14902837D01*
X14033986Y-14891962D01*
X14031775Y-14877778D01*
X14018617Y-14874000D01*
X12972115Y-14874000D01*
X12956876Y-14878475D01*
X12955671Y-14879865D01*
X12954000Y-14887548D01*
X12954000Y-16887885D01*
X12446000Y-16887885D01*
X12446000Y-14347885D01*
X12954000Y-14347885D01*
X12958475Y-14363124D01*
X12959865Y-14364329D01*
X12967548Y-14366000D01*
X14018344Y-14366000D01*
X14031875Y-14362027D01*
X14033180Y-14352947D01*
X13991214Y-14185875D01*
X13987894Y-14176124D01*
X13902972Y-13980814D01*
X13898105Y-13971739D01*
X13782426Y-13792926D01*
X13776136Y-13784757D01*
X13632806Y-13627240D01*
X13625273Y-13620215D01*
X13458139Y-13488222D01*
X13449552Y-13482517D01*
X13412116Y-13461851D01*
X13362146Y-13411419D01*
X13347374Y-13341976D01*
X13372490Y-13275571D01*
X13399842Y-13248964D01*
X13575327Y-13123792D01*
X13583200Y-13117139D01*
X13734052Y-12966812D01*
X13740730Y-12958965D01*
X13865003Y-12786020D01*
X13870313Y-12777183D01*
X13964670Y-12586267D01*
X13968469Y-12576672D01*
X14030377Y-12372910D01*
X14032555Y-12362837D01*
X14033986Y-12351962D01*
X14031775Y-12337778D01*
X14018617Y-12334000D01*
X12972115Y-12334000D01*
X12956876Y-12338475D01*
X12955671Y-12339865D01*
X12954000Y-12347548D01*
X12954000Y-14347885D01*
X12446000Y-14347885D01*
X12446000Y-11807885D01*
X12954000Y-11807885D01*
X12958475Y-11823124D01*
X12959865Y-11824329D01*
X12967548Y-11826000D01*
X14018344Y-11826000D01*
X14031875Y-11822027D01*
X14033180Y-11812947D01*
X13991214Y-11645875D01*
X13987894Y-11636124D01*
X13902972Y-11440814D01*
X13898105Y-11431739D01*
X13782426Y-11252926D01*
X13776136Y-11244757D01*
X13632806Y-11087240D01*
X13625273Y-11080215D01*
X13458139Y-10948222D01*
X13449552Y-10942517D01*
X13412116Y-10921851D01*
X13362146Y-10871419D01*
X13347374Y-10801976D01*
X13372490Y-10735571D01*
X13399842Y-10708964D01*
X13575327Y-10583792D01*
X13583200Y-10577139D01*
X13734052Y-10426812D01*
X13740730Y-10418965D01*
X13865003Y-10246020D01*
X13870313Y-10237183D01*
X13964670Y-10046267D01*
X13968469Y-10036672D01*
X14030377Y-9832910D01*
X14032555Y-9822837D01*
X14033986Y-9811962D01*
X14031775Y-9797778D01*
X14018617Y-9794000D01*
X12972115Y-9794000D01*
X12956876Y-9798475D01*
X12955671Y-9799865D01*
X12954000Y-9807548D01*
X12954000Y-11807885D01*
X12446000Y-11807885D01*
X12446000Y-9267885D01*
X12954000Y-9267885D01*
X12958475Y-9283124D01*
X12959865Y-9284329D01*
X12967548Y-9286000D01*
X14018344Y-9286000D01*
X14031875Y-9282027D01*
X14033180Y-9272947D01*
X13991214Y-9105875D01*
X13987894Y-9096124D01*
X13902972Y-8900814D01*
X13898105Y-8891739D01*
X13782426Y-8712926D01*
X13776136Y-8704757D01*
X13632806Y-8547240D01*
X13625273Y-8540215D01*
X13458139Y-8408222D01*
X13449552Y-8402517D01*
X13263117Y-8299599D01*
X13253705Y-8295369D01*
X13052959Y-8224280D01*
X13042988Y-8221646D01*
X12971837Y-8208972D01*
X12958540Y-8210432D01*
X12954000Y-8224989D01*
X12954000Y-9267885D01*
X12446000Y-9267885D01*
X12446000Y-8223102D01*
X12442082Y-8209758D01*
X12427806Y-8207771D01*
X12389324Y-8213660D01*
X12379288Y-8216051D01*
X12176868Y-8282212D01*
X12167364Y-8286207D01*
X12152192Y-8294105D01*
X12082532Y-8307818D01*
X12016517Y-8281693D01*
X11975105Y-8224025D01*
X11968011Y-8182342D01*
X11968011Y-4632703D01*
X12890743Y-4632703D01*
X12928268Y-4917734D01*
X13004129Y-5195036D01*
X13011267Y-5211770D01*
X13103376Y-5427715D01*
X13116923Y-5459476D01*
X13128693Y-5479142D01*
X13244871Y-5673261D01*
X13264561Y-5706161D01*
X13444313Y-5930528D01*
X13545507Y-6026557D01*
X13642771Y-6118857D01*
X13652851Y-6128423D01*
X13886317Y-6296186D01*
X13890112Y-6298195D01*
X13890113Y-6298196D01*
X13911869Y-6309715D01*
X14140392Y-6430712D01*
X14410373Y-6529511D01*
X14691264Y-6590755D01*
X14719841Y-6593004D01*
X14914282Y-6608307D01*
X14914291Y-6608307D01*
X14916739Y-6608500D01*
X15072271Y-6608500D01*
X15074407Y-6608354D01*
X15074418Y-6608354D01*
X15282548Y-6594165D01*
X15282554Y-6594164D01*
X15286825Y-6593873D01*
X15291020Y-6593004D01*
X15291022Y-6593004D01*
X15427584Y-6564723D01*
X15568342Y-6535574D01*
X15839343Y-6439607D01*
X16094812Y-6307750D01*
X16098313Y-6305289D01*
X16098317Y-6305287D01*
X16212417Y-6225096D01*
X16330023Y-6142441D01*
X16408403Y-6069606D01*
X16537479Y-5949661D01*
X16537481Y-5949658D01*
X16540622Y-5946740D01*
X16722713Y-5724268D01*
X16872927Y-5479142D01*
X16988483Y-5215898D01*
X17067244Y-4939406D01*
X17107751Y-4654784D01*
X17107845Y-4636951D01*
X17109235Y-4371583D01*
X17109235Y-4371576D01*
X17109257Y-4367297D01*
X17071732Y-4082266D01*
X16995871Y-3804964D01*
X16892180Y-3561866D01*
X16884763Y-3544476D01*
X16884761Y-3544472D01*
X16883077Y-3540524D01*
X16772707Y-3356109D01*
X16737643Y-3297521D01*
X16737640Y-3297517D01*
X16735439Y-3293839D01*
X16555687Y-3069472D01*
X16347149Y-2871577D01*
X16113683Y-2703814D01*
X16091843Y-2692250D01*
X16068654Y-2679972D01*
X15859608Y-2569288D01*
X15589627Y-2470489D01*
X15308736Y-2409245D01*
X15277685Y-2406801D01*
X15085718Y-2391693D01*
X15085709Y-2391693D01*
X15083261Y-2391500D01*
X14927729Y-2391500D01*
X14925593Y-2391646D01*
X14925582Y-2391646D01*
X14717452Y-2405835D01*
X14717446Y-2405836D01*
X14713175Y-2406127D01*
X14708980Y-2406996D01*
X14708978Y-2406996D01*
X14572416Y-2435277D01*
X14431658Y-2464426D01*
X14160657Y-2560393D01*
X13905188Y-2692250D01*
X13901687Y-2694711D01*
X13901683Y-2694713D01*
X13891594Y-2701804D01*
X13669977Y-2857559D01*
X13654892Y-2871577D01*
X13490983Y-3023891D01*
X13459378Y-3053260D01*
X13277287Y-3275732D01*
X13127073Y-3520858D01*
X13011517Y-3784102D01*
X12932756Y-4060594D01*
X12892249Y-4345216D01*
X12892227Y-4349505D01*
X12892226Y-4349512D01*
X12890765Y-4628417D01*
X12890743Y-4632703D01*
X11968011Y-4632703D01*
X11968011Y-737190D01*
X11988013Y-669069D01*
X12041669Y-622576D01*
X12111943Y-612472D01*
X12138960Y-619480D01*
X12315001Y-686703D01*
X12324899Y-689579D01*
X12428250Y-710606D01*
X12442299Y-709410D01*
X12446000Y-699065D01*
X12446000Y-698517D01*
X12954000Y-698517D01*
X12958064Y-712359D01*
X12971478Y-714393D01*
X12978184Y-713534D01*
X12988262Y-711392D01*
X13192255Y-650191D01*
X13201842Y-646433D01*
X13393095Y-552739D01*
X13401945Y-547464D01*
X13575328Y-423792D01*
X13583200Y-417139D01*
X13734052Y-266812D01*
X13740730Y-258965D01*
X13865003Y-86020D01*
X13870313Y-77183D01*
X13964670Y113733D01*
X13968469Y123328D01*
X14030377Y327090D01*
X14032555Y337163D01*
X14033986Y348038D01*
X14031775Y362222D01*
X14018617Y366000D01*
X12972115Y366000D01*
X12956876Y361525D01*
X12955671Y360135D01*
X12954000Y352452D01*
X12954000Y-698517D01*
X12446000Y-698517D01*
X12446000Y892115D01*
X12954000Y892115D01*
X12958475Y876876D01*
X12959865Y875671D01*
X12967548Y874000D01*
X14018344Y874000D01*
X14031875Y877973D01*
X14033180Y887053D01*
X13991214Y1054125D01*
X13987894Y1063876D01*
X13902972Y1259186D01*
X13898105Y1268261D01*
X13782426Y1447074D01*
X13776136Y1455243D01*
X13632806Y1612760D01*
X13625273Y1619785D01*
X13458139Y1751778D01*
X13449552Y1757483D01*
X13263117Y1860401D01*
X13253705Y1864631D01*
X13052959Y1935720D01*
X13042988Y1938354D01*
X12971837Y1951028D01*
X12958540Y1949568D01*
X12954000Y1935011D01*
X12954000Y892115D01*
X12446000Y892115D01*
X12446000Y1936898D01*
X12442082Y1950242D01*
X12427806Y1952229D01*
X12389324Y1946340D01*
X12379288Y1943949D01*
X12176868Y1877788D01*
X12167359Y1873791D01*
X11978463Y1775458D01*
X11969738Y1769964D01*
X11799433Y1642095D01*
X11791726Y1635252D01*
X11714478Y1554416D01*
X11652954Y1518986D01*
X11582042Y1522443D01*
X11524255Y1563689D01*
X11505402Y1597237D01*
X11463767Y1708297D01*
X11460615Y1716705D01*
X11387370Y1814436D01*
X11362522Y1880941D01*
X11377575Y1950324D01*
X11387370Y1965565D01*
X11392002Y1971745D01*
X11460615Y2063295D01*
X11511745Y2199684D01*
X11518500Y2261866D01*
X11518500Y4058134D01*
X11511745Y4120316D01*
X11460615Y4256705D01*
X11373261Y4373261D01*
X11256705Y4460615D01*
X11120316Y4511745D01*
X11058134Y4518500D01*
X10024500Y4518500D01*
X9956379Y4538502D01*
X9909886Y4592158D01*
X9898500Y4644500D01*
X9898500Y6847522D01*
X9901379Y6874304D01*
X9906000Y6895547D01*
X9906000Y6900116D01*
X10414000Y6900116D01*
X10418475Y6884877D01*
X10419865Y6883672D01*
X10427548Y6882001D01*
X11054669Y6882001D01*
X11061490Y6882371D01*
X11112352Y6887895D01*
X11127604Y6891521D01*
X11248054Y6936676D01*
X11263649Y6945214D01*
X11365724Y7021715D01*
X11378285Y7034276D01*
X11454786Y7136351D01*
X11463324Y7151946D01*
X11508478Y7272394D01*
X11512105Y7287649D01*
X11517631Y7338514D01*
X11518000Y7345328D01*
X11518000Y7967885D01*
X11513525Y7983124D01*
X11512135Y7984329D01*
X11504452Y7986000D01*
X10432115Y7986000D01*
X10416876Y7981525D01*
X10415671Y7980135D01*
X10414000Y7972452D01*
X10414000Y6900116D01*
X9906000Y6900116D01*
X9906000Y8512115D01*
X10414000Y8512115D01*
X10418475Y8496876D01*
X10419865Y8495671D01*
X10427548Y8494000D01*
X11499884Y8494000D01*
X11515123Y8498475D01*
X11516328Y8499865D01*
X11517999Y8507548D01*
X11517999Y9134669D01*
X11517629Y9141490D01*
X11512105Y9192352D01*
X11508479Y9207604D01*
X11463324Y9328054D01*
X11454786Y9343649D01*
X11378285Y9445724D01*
X11365724Y9458285D01*
X11263649Y9534786D01*
X11248054Y9543324D01*
X11127606Y9588478D01*
X11112351Y9592105D01*
X11061486Y9597631D01*
X11054672Y9598000D01*
X10432115Y9598000D01*
X10416876Y9593525D01*
X10415671Y9592135D01*
X10414000Y9584452D01*
X10414000Y8512115D01*
X9906000Y8512115D01*
X9906000Y9579884D01*
X9903604Y9588044D01*
X9898500Y9623542D01*
X9898500Y15081377D01*
X9898502Y15082147D01*
X9898800Y15130898D01*
X9898976Y15159721D01*
X9890850Y15188153D01*
X9887272Y15204915D01*
X9884352Y15225302D01*
X9883080Y15234187D01*
X9877369Y15246749D01*
X9872452Y15257562D01*
X9866004Y15275087D01*
X9861416Y15291138D01*
X9858949Y15299771D01*
X9854156Y15307368D01*
X9843170Y15324780D01*
X9835030Y15339865D01*
X9832564Y15345289D01*
X9822792Y15366782D01*
X9806030Y15386235D01*
X9794927Y15401239D01*
X9781224Y15422958D01*
X9774499Y15428897D01*
X9774496Y15428901D01*
X9759062Y15442532D01*
X9747018Y15454724D01*
X9733573Y15470327D01*
X9733570Y15470329D01*
X9727713Y15477127D01*
X9714009Y15486010D01*
X9706165Y15491094D01*
X9691291Y15502385D01*
X9678783Y15513431D01*
X9678782Y15513432D01*
X9672049Y15519378D01*
X9645287Y15531943D01*
X9630309Y15540263D01*
X9613017Y15551471D01*
X9613012Y15551473D01*
X9605485Y15556352D01*
X9596892Y15558922D01*
X9596887Y15558924D01*
X9580880Y15563711D01*
X9563436Y15570372D01*
X9548324Y15577467D01*
X9548322Y15577468D01*
X9540200Y15581281D01*
X9531333Y15582662D01*
X9531332Y15582662D01*
X9520478Y15584352D01*
X9510983Y15585830D01*
X9494268Y15589613D01*
X9474534Y15595515D01*
X9474528Y15595516D01*
X9465934Y15598086D01*
X9456963Y15598141D01*
X9456962Y15598141D01*
X9446903Y15598202D01*
X9431494Y15598296D01*
X9430711Y15598329D01*
X9429614Y15598500D01*
X9398623Y15598500D01*
X9397853Y15598502D01*
X9324215Y15598952D01*
X9324214Y15598952D01*
X9320279Y15598976D01*
X9318935Y15598592D01*
X9317590Y15598500D01*
X-9381377Y15598500D01*
X-9382147Y15598502D01*
X-9382963Y15598507D01*
X-9459721Y15598976D01*
X-9482082Y15592585D01*
X-9488153Y15590850D01*
X-9504915Y15587272D01*
X-9534187Y15583080D01*
X-9542355Y15579366D01*
X-9542356Y15579366D01*
X-9557562Y15572452D01*
X-9575086Y15566004D01*
X-9599771Y15558949D01*
X-9607365Y15554157D01*
X-9607368Y15554156D01*
X-9624780Y15543170D01*
X-9639863Y15535031D01*
X-9666782Y15522792D01*
X-9673584Y15516931D01*
X-9686235Y15506030D01*
X-9701239Y15494927D01*
X-9722958Y15481224D01*
X-9728897Y15474499D01*
X-9728901Y15474496D01*
X-9742532Y15459062D01*
X-9754724Y15447018D01*
X-9770327Y15433573D01*
X-9770329Y15433570D01*
X-9777127Y15427713D01*
X-9782007Y15420184D01*
X-9782008Y15420183D01*
X-9791094Y15406165D01*
X-9802385Y15391291D01*
X-9813431Y15378783D01*
X-9819378Y15372049D01*
X-9825688Y15358609D01*
X-9831942Y15345289D01*
X-9840263Y15330309D01*
X-9851471Y15313017D01*
X-9851473Y15313012D01*
X-9856352Y15305485D01*
X-9858922Y15296892D01*
X-9858924Y15296887D01*
X-9863711Y15280880D01*
X-9870372Y15263436D01*
X-9876090Y15251257D01*
X-9881281Y15240200D01*
X-9882662Y15231333D01*
X-9882662Y15231332D01*
X-9885830Y15210985D01*
X-9889613Y15194268D01*
X-9895515Y15174534D01*
X-9895516Y15174528D01*
X-9898086Y15165934D01*
X-9898141Y15156963D01*
X-9898141Y15156962D01*
X-9898296Y15131503D01*
X-9898329Y15130711D01*
X-9898500Y15129614D01*
X-9898500Y15098623D01*
X-9898502Y15097853D01*
X-9898976Y15020279D01*
X-9898592Y15018935D01*
X-9898500Y15017590D01*
X-9898500Y12264500D01*
X-9918502Y12196379D01*
X-9972158Y12149886D01*
X-10024500Y12138500D01*
X-11058134Y12138500D01*
X-11120316Y12131745D01*
X-11256705Y12080615D01*
X-11373261Y11993261D01*
X-11460615Y11876705D01*
X-11463767Y11868296D01*
X-11463768Y11868295D01*
X-11505278Y11757567D01*
X-11547919Y11700802D01*
X-11614481Y11676102D01*
X-11683830Y11691309D01*
X-11716454Y11716996D01*
X-11767201Y11772766D01*
X-11774727Y11779785D01*
X-11941861Y11911778D01*
X-11950448Y11917483D01*
X-12136883Y12020401D01*
X-12146295Y12024631D01*
X-12347041Y12095720D01*
X-12357012Y12098354D01*
X-12428163Y12111028D01*
X-12441460Y12109568D01*
X-12446000Y12095011D01*
X-12446000Y8112000D01*
X-12466002Y8043879D01*
X-12519658Y7997386D01*
X-12572000Y7986000D01*
X-14016775Y7986000D01*
X-14030306Y7982027D01*
X-14031743Y7972034D01*
X-14001435Y7837554D01*
X-13998355Y7827725D01*
X-13918230Y7630397D01*
X-13913587Y7621206D01*
X-13802306Y7439612D01*
X-13796223Y7431301D01*
X-13656787Y7270333D01*
X-13649420Y7263117D01*
X-13485566Y7127084D01*
X-13477119Y7121169D01*
X-13408031Y7080797D01*
X-13359307Y7029158D01*
X-13346236Y6959375D01*
X-13372967Y6893604D01*
X-13413416Y6860248D01*
X-13426393Y6853493D01*
X-13430526Y6850390D01*
X-13430529Y6850388D01*
X-13575004Y6741913D01*
X-13605035Y6719365D01*
X-13630459Y6692760D01*
X-13698720Y6621329D01*
X-13759371Y6557862D01*
X-13762285Y6553590D01*
X-13762286Y6553589D01*
X-13867102Y6399934D01*
X-13922013Y6354931D01*
X-13992538Y6346760D01*
X-14056285Y6378014D01*
X-14076982Y6402498D01*
X-14157574Y6527074D01*
X-14163864Y6535243D01*
X-14307194Y6692760D01*
X-14314727Y6699785D01*
X-14481861Y6831778D01*
X-14490448Y6837483D01*
X-14676883Y6940401D01*
X-14686295Y6944631D01*
X-14887041Y7015720D01*
X-14897012Y7018354D01*
X-14968163Y7031028D01*
X-14981460Y7029568D01*
X-14986000Y7015011D01*
X-14986000Y1841483D01*
X-14981936Y1827641D01*
X-14968522Y1825607D01*
X-14961816Y1826466D01*
X-14951738Y1828608D01*
X-14747745Y1889809D01*
X-14738158Y1893567D01*
X-14546905Y1987261D01*
X-14538055Y1992536D01*
X-14364672Y2116208D01*
X-14356800Y2122861D01*
X-14205948Y2273188D01*
X-14199270Y2281035D01*
X-14071978Y2458181D01*
X-14070721Y2457278D01*
X-14023627Y2500638D01*
X-13953689Y2512855D01*
X-13888249Y2485322D01*
X-13860421Y2453489D01*
X-13800013Y2354912D01*
X-13653750Y2186062D01*
X-13649770Y2182758D01*
X-13645019Y2178813D01*
X-13605384Y2119910D01*
X-13603887Y2048929D01*
X-13641003Y1988407D01*
X-13681275Y1963888D01*
X-13758304Y1935011D01*
X-13796705Y1920615D01*
X-13913261Y1833261D01*
X-14000615Y1716705D01*
X-14051745Y1580316D01*
X-14058500Y1518134D01*
X-14058500Y-278134D01*
X-14051745Y-340316D01*
X-14000615Y-476705D01*
X-13913261Y-593261D01*
X-13796705Y-680615D01*
X-13660316Y-731745D01*
X-13598134Y-738500D01*
X-13459500Y-738500D01*
X-13391379Y-758502D01*
X-13344886Y-812158D01*
X-13333500Y-864500D01*
X-13333500Y-2881357D01*
X-13353502Y-2949478D01*
X-13407158Y-2995971D01*
X-13477432Y-3006075D01*
X-13546233Y-2972754D01*
X-13652851Y-2871577D01*
X-13886317Y-2703814D01*
X-13908157Y-2692250D01*
X-13931346Y-2679972D01*
X-14140392Y-2569288D01*
X-14410373Y-2470489D01*
X-14691264Y-2409245D01*
X-14722315Y-2406801D01*
X-14914282Y-2391693D01*
X-14914291Y-2391693D01*
X-14916739Y-2391500D01*
X-15072271Y-2391500D01*
X-15074407Y-2391646D01*
X-15074418Y-2391646D01*
X-15282548Y-2405835D01*
X-15282554Y-2405836D01*
X-15286825Y-2406127D01*
X-15291020Y-2406996D01*
X-15291022Y-2406996D01*
X-15427584Y-2435277D01*
X-15568342Y-2464426D01*
X-15839343Y-2560393D01*
X-16094812Y-2692250D01*
X-16098313Y-2694711D01*
X-16098317Y-2694713D01*
X-16108406Y-2701804D01*
X-16330023Y-2857559D01*
X-16345108Y-2871577D01*
X-16509017Y-3023891D01*
X-16540622Y-3053260D01*
X-16722713Y-3275732D01*
X-16872927Y-3520858D01*
X-16988483Y-3784102D01*
X-17067244Y-4060594D01*
X-17107751Y-4345216D01*
X-17107773Y-4349505D01*
X-17107774Y-4349512D01*
X-17109235Y-4628417D01*
X-17109257Y-4632703D01*
X-17071732Y-4917734D01*
X-16995871Y-5195036D01*
X-16988733Y-5211770D01*
X-16896624Y-5427715D01*
X-16883077Y-5459476D01*
X-16871307Y-5479142D01*
X-16755129Y-5673261D01*
X-16735439Y-5706161D01*
X-16555687Y-5930528D01*
X-16454493Y-6026557D01*
X-16357229Y-6118857D01*
X-16347149Y-6128423D01*
X-16113683Y-6296186D01*
X-16109888Y-6298195D01*
X-16109887Y-6298196D01*
X-16088131Y-6309715D01*
X-15859608Y-6430712D01*
X-15589627Y-6529511D01*
X-15308736Y-6590755D01*
X-15280159Y-6593004D01*
X-15085718Y-6608307D01*
X-15085709Y-6608307D01*
X-15083261Y-6608500D01*
X-14927729Y-6608500D01*
X-14925593Y-6608354D01*
X-14925582Y-6608354D01*
X-14717452Y-6594165D01*
X-14717446Y-6594164D01*
X-14713175Y-6593873D01*
X-14708980Y-6593004D01*
X-14708978Y-6593004D01*
X-14572416Y-6564723D01*
X-14431658Y-6535574D01*
X-14160657Y-6439607D01*
X-13905188Y-6307750D01*
X-13901687Y-6305289D01*
X-13901683Y-6305287D01*
X-13787583Y-6225096D01*
X-13669977Y-6142441D01*
X-13600257Y-6077653D01*
X-13545271Y-6026557D01*
X-13481754Y-5994838D01*
X-13411171Y-6002494D01*
X-13355933Y-6047095D01*
X-13333500Y-6118857D01*
X-13333500Y-6921233D01*
X-13334027Y-6932416D01*
X-13335702Y-6939909D01*
X-13335453Y-6947835D01*
X-13335453Y-6947836D01*
X-13333562Y-7007986D01*
X-13333500Y-7011945D01*
X-13333500Y-7039856D01*
X-13333003Y-7043790D01*
X-13333003Y-7043791D01*
X-13332995Y-7043856D01*
X-13332062Y-7055693D01*
X-13330673Y-7099889D01*
X-13325022Y-7119339D01*
X-13321013Y-7138700D01*
X-13318474Y-7158797D01*
X-13315555Y-7166168D01*
X-13315555Y-7166170D01*
X-13302196Y-7199912D01*
X-13298351Y-7211142D01*
X-13286018Y-7253593D01*
X-13281985Y-7260412D01*
X-13281983Y-7260417D01*
X-13275707Y-7271028D01*
X-13267012Y-7288776D01*
X-13259552Y-7307617D01*
X-13254890Y-7314033D01*
X-13254890Y-7314034D01*
X-13233564Y-7343387D01*
X-13227048Y-7353307D01*
X-13204542Y-7391362D01*
X-13190221Y-7405683D01*
X-13177381Y-7420716D01*
X-13165472Y-7437107D01*
X-13159366Y-7442158D01*
X-13131395Y-7465298D01*
X-13122616Y-7473288D01*
X-12482025Y-8113879D01*
X-12447999Y-8176191D01*
X-12449306Y-8205795D01*
X-12446000Y-8205795D01*
X-12446000Y-26098517D01*
X-12441936Y-26112359D01*
X-12428522Y-26114393D01*
X-12421816Y-26113534D01*
X-12411738Y-26111392D01*
X-12207745Y-26050191D01*
X-12198158Y-26046433D01*
X-12006905Y-25952739D01*
X-11998055Y-25947464D01*
X-11824672Y-25823792D01*
X-11816807Y-25817145D01*
X-11712103Y-25712805D01*
X-11649732Y-25678889D01*
X-11578925Y-25684077D01*
X-11522163Y-25726723D01*
X-11505181Y-25757826D01*
X-11460615Y-25876705D01*
X-11373261Y-25993261D01*
X-11256705Y-26080615D01*
X-11120316Y-26131745D01*
X-11058134Y-26138500D01*
X-10024500Y-26138500D01*
X-9956379Y-26158502D01*
X-9909886Y-26212158D01*
X-9898500Y-26264500D01*
X-9898500Y-27865500D01*
X-9918502Y-27933621D01*
X-9972158Y-27980114D01*
X-10024500Y-27991500D01*
X-15950633Y-27991500D01*
X-15970018Y-27990000D01*
X-15984851Y-27987690D01*
X-15984855Y-27987690D01*
X-15993724Y-27986309D01*
X-16014183Y-27988984D01*
X-16036007Y-27989928D01*
X-16385965Y-27974648D01*
X-16396914Y-27973690D01*
X-16413564Y-27971498D01*
X-16774498Y-27923981D01*
X-16785307Y-27922074D01*
X-17157115Y-27839647D01*
X-17167732Y-27836802D01*
X-17530939Y-27722282D01*
X-17541254Y-27718529D01*
X-17893123Y-27572780D01*
X-17903067Y-27568142D01*
X-18240868Y-27392294D01*
X-18250387Y-27386799D01*
X-18571574Y-27182180D01*
X-18580578Y-27175876D01*
X-18882716Y-26944038D01*
X-18891137Y-26936972D01*
X-19171914Y-26679686D01*
X-19179686Y-26671914D01*
X-19436972Y-26391137D01*
X-19444038Y-26382716D01*
X-19675876Y-26080578D01*
X-19682180Y-26071574D01*
X-19882060Y-25757826D01*
X-19886800Y-25750385D01*
X-19892295Y-25740867D01*
X-19925342Y-25677384D01*
X-20068142Y-25403067D01*
X-20072784Y-25393114D01*
X-20115438Y-25290136D01*
X-20215749Y-25047966D01*
X-14031743Y-25047966D01*
X-14001435Y-25182446D01*
X-13998355Y-25192275D01*
X-13918230Y-25389603D01*
X-13913587Y-25398794D01*
X-13802306Y-25580388D01*
X-13796223Y-25588699D01*
X-13656787Y-25749667D01*
X-13649420Y-25756883D01*
X-13485566Y-25892916D01*
X-13477119Y-25898831D01*
X-13293244Y-26006279D01*
X-13283958Y-26010729D01*
X-13084999Y-26086703D01*
X-13075101Y-26089579D01*
X-12971750Y-26110606D01*
X-12957701Y-26109410D01*
X-12954000Y-26099065D01*
X-12954000Y-25052115D01*
X-12958475Y-25036876D01*
X-12959865Y-25035671D01*
X-12967548Y-25034000D01*
X-14016775Y-25034000D01*
X-14030306Y-25037973D01*
X-14031743Y-25047966D01*
X-20215749Y-25047966D01*
X-20218529Y-25041254D01*
X-20222285Y-25030932D01*
X-20336802Y-24667732D01*
X-20339647Y-24657114D01*
X-20369352Y-24523124D01*
X-20371334Y-24514183D01*
X-14035611Y-24514183D01*
X-14034088Y-24522607D01*
X-14021708Y-24526000D01*
X-12972115Y-24526000D01*
X-12956876Y-24521525D01*
X-12955671Y-24520135D01*
X-12954000Y-24512452D01*
X-12954000Y-22512115D01*
X-12958475Y-22496876D01*
X-12959865Y-22495671D01*
X-12967548Y-22494000D01*
X-14016775Y-22494000D01*
X-14030306Y-22497973D01*
X-14031743Y-22507966D01*
X-14001435Y-22642446D01*
X-13998355Y-22652275D01*
X-13918230Y-22849603D01*
X-13913587Y-22858794D01*
X-13802306Y-23040388D01*
X-13796223Y-23048699D01*
X-13656787Y-23209667D01*
X-13649420Y-23216883D01*
X-13485566Y-23352916D01*
X-13477119Y-23358831D01*
X-13407521Y-23399501D01*
X-13358797Y-23451140D01*
X-13345726Y-23520923D01*
X-13372457Y-23586694D01*
X-13412913Y-23620053D01*
X-13421538Y-23624542D01*
X-13430262Y-23630036D01*
X-13600567Y-23757905D01*
X-13608274Y-23764748D01*
X-13755410Y-23918717D01*
X-13761896Y-23926727D01*
X-13881902Y-24102649D01*
X-13887000Y-24111623D01*
X-13976662Y-24304783D01*
X-13980225Y-24314470D01*
X-14035611Y-24514183D01*
X-20371334Y-24514183D01*
X-20422074Y-24285307D01*
X-20423982Y-24274490D01*
X-20473690Y-23896914D01*
X-20474648Y-23885964D01*
X-20478295Y-23802433D01*
X-20489439Y-23547206D01*
X-20487812Y-23520805D01*
X-20487231Y-23517352D01*
X-20487230Y-23517345D01*
X-20486424Y-23512552D01*
X-20486271Y-23500000D01*
X-20490227Y-23472376D01*
X-20491500Y-23454514D01*
X-20491500Y-21974183D01*
X-14035611Y-21974183D01*
X-14034088Y-21982607D01*
X-14021708Y-21986000D01*
X-12972115Y-21986000D01*
X-12956876Y-21981525D01*
X-12955671Y-21980135D01*
X-12954000Y-21972452D01*
X-12954000Y-19972115D01*
X-12958475Y-19956876D01*
X-12959865Y-19955671D01*
X-12967548Y-19954000D01*
X-14016775Y-19954000D01*
X-14030306Y-19957973D01*
X-14031743Y-19967966D01*
X-14001435Y-20102446D01*
X-13998355Y-20112275D01*
X-13918230Y-20309603D01*
X-13913587Y-20318794D01*
X-13802306Y-20500388D01*
X-13796223Y-20508699D01*
X-13656787Y-20669667D01*
X-13649420Y-20676883D01*
X-13485566Y-20812916D01*
X-13477119Y-20818831D01*
X-13407521Y-20859501D01*
X-13358797Y-20911140D01*
X-13345726Y-20980923D01*
X-13372457Y-21046694D01*
X-13412913Y-21080053D01*
X-13421538Y-21084542D01*
X-13430262Y-21090036D01*
X-13600567Y-21217905D01*
X-13608274Y-21224748D01*
X-13755410Y-21378717D01*
X-13761896Y-21386727D01*
X-13881902Y-21562649D01*
X-13887000Y-21571623D01*
X-13976662Y-21764783D01*
X-13980225Y-21774470D01*
X-14035611Y-21974183D01*
X-20491500Y-21974183D01*
X-20491500Y-19434183D01*
X-14035611Y-19434183D01*
X-14034088Y-19442607D01*
X-14021708Y-19446000D01*
X-12972115Y-19446000D01*
X-12956876Y-19441525D01*
X-12955671Y-19440135D01*
X-12954000Y-19432452D01*
X-12954000Y-17432115D01*
X-12958475Y-17416876D01*
X-12959865Y-17415671D01*
X-12967548Y-17414000D01*
X-14016775Y-17414000D01*
X-14030306Y-17417973D01*
X-14031743Y-17427966D01*
X-14001435Y-17562446D01*
X-13998355Y-17572275D01*
X-13918230Y-17769603D01*
X-13913587Y-17778794D01*
X-13802306Y-17960388D01*
X-13796223Y-17968699D01*
X-13656787Y-18129667D01*
X-13649420Y-18136883D01*
X-13485566Y-18272916D01*
X-13477119Y-18278831D01*
X-13407521Y-18319501D01*
X-13358797Y-18371140D01*
X-13345726Y-18440923D01*
X-13372457Y-18506694D01*
X-13412913Y-18540053D01*
X-13421538Y-18544542D01*
X-13430262Y-18550036D01*
X-13600567Y-18677905D01*
X-13608274Y-18684748D01*
X-13755410Y-18838717D01*
X-13761896Y-18846727D01*
X-13881902Y-19022649D01*
X-13887000Y-19031623D01*
X-13976662Y-19224783D01*
X-13980225Y-19234470D01*
X-14035611Y-19434183D01*
X-20491500Y-19434183D01*
X-20491500Y-17442966D01*
X-19111743Y-17442966D01*
X-19081435Y-17577446D01*
X-19078355Y-17587275D01*
X-18998230Y-17784603D01*
X-18993587Y-17793794D01*
X-18882306Y-17975388D01*
X-18876223Y-17983699D01*
X-18736787Y-18144667D01*
X-18729420Y-18151883D01*
X-18565566Y-18287916D01*
X-18557119Y-18293831D01*
X-18373244Y-18401279D01*
X-18363958Y-18405729D01*
X-18164999Y-18481703D01*
X-18155101Y-18484579D01*
X-18051750Y-18505606D01*
X-18037701Y-18504410D01*
X-18034000Y-18494065D01*
X-18034000Y-18493517D01*
X-17526000Y-18493517D01*
X-17521936Y-18507359D01*
X-17508522Y-18509393D01*
X-17501816Y-18508534D01*
X-17491738Y-18506392D01*
X-17287745Y-18445191D01*
X-17278158Y-18441433D01*
X-17086905Y-18347739D01*
X-17078055Y-18342464D01*
X-16904672Y-18218792D01*
X-16896800Y-18212139D01*
X-16745948Y-18061812D01*
X-16739270Y-18053965D01*
X-16614997Y-17881020D01*
X-16609687Y-17872183D01*
X-16515330Y-17681267D01*
X-16511531Y-17671672D01*
X-16449623Y-17467910D01*
X-16447445Y-17457837D01*
X-16446014Y-17446962D01*
X-16448225Y-17432778D01*
X-16461383Y-17429000D01*
X-17507885Y-17429000D01*
X-17523124Y-17433475D01*
X-17524329Y-17434865D01*
X-17526000Y-17442548D01*
X-17526000Y-18493517D01*
X-18034000Y-18493517D01*
X-18034000Y-17447115D01*
X-18038475Y-17431876D01*
X-18039865Y-17430671D01*
X-18047548Y-17429000D01*
X-19096775Y-17429000D01*
X-19110306Y-17432973D01*
X-19111743Y-17442966D01*
X-20491500Y-17442966D01*
X-20491500Y-14601695D01*
X-19142749Y-14601695D01*
X-19142452Y-14606848D01*
X-19142452Y-14606851D01*
X-19136989Y-14701590D01*
X-19129890Y-14824715D01*
X-19128753Y-14829761D01*
X-19128752Y-14829767D01*
X-19115730Y-14887548D01*
X-19080778Y-15042639D01*
X-19042539Y-15136811D01*
X-19001128Y-15238794D01*
X-18996734Y-15249616D01*
X-18880013Y-15440088D01*
X-18733750Y-15608938D01*
X-18561874Y-15751632D01*
X-18514182Y-15779501D01*
X-18488045Y-15794774D01*
X-18439321Y-15846412D01*
X-18426250Y-15916195D01*
X-18452981Y-15981967D01*
X-18493438Y-16015327D01*
X-18501543Y-16019546D01*
X-18510262Y-16025036D01*
X-18680567Y-16152905D01*
X-18688274Y-16159748D01*
X-18835410Y-16313717D01*
X-18841896Y-16321727D01*
X-18961902Y-16497649D01*
X-18967000Y-16506623D01*
X-19056662Y-16699783D01*
X-19060225Y-16709470D01*
X-19115611Y-16909183D01*
X-19114088Y-16917607D01*
X-19101708Y-16921000D01*
X-16461656Y-16921000D01*
X-16448125Y-16917027D01*
X-16446820Y-16907947D01*
X-16450277Y-16894183D01*
X-14035611Y-16894183D01*
X-14034088Y-16902607D01*
X-14021708Y-16906000D01*
X-12972115Y-16906000D01*
X-12956876Y-16901525D01*
X-12955671Y-16900135D01*
X-12954000Y-16892452D01*
X-12954000Y-14892115D01*
X-12958475Y-14876876D01*
X-12959865Y-14875671D01*
X-12967548Y-14874000D01*
X-14016775Y-14874000D01*
X-14030306Y-14877973D01*
X-14031743Y-14887966D01*
X-14001435Y-15022446D01*
X-13998355Y-15032275D01*
X-13918230Y-15229603D01*
X-13913587Y-15238794D01*
X-13802306Y-15420388D01*
X-13796223Y-15428699D01*
X-13656787Y-15589667D01*
X-13649420Y-15596883D01*
X-13485566Y-15732916D01*
X-13477119Y-15738831D01*
X-13407521Y-15779501D01*
X-13358797Y-15831140D01*
X-13345726Y-15900923D01*
X-13372457Y-15966694D01*
X-13412913Y-16000053D01*
X-13421538Y-16004542D01*
X-13430262Y-16010036D01*
X-13600567Y-16137905D01*
X-13608274Y-16144748D01*
X-13755410Y-16298717D01*
X-13761896Y-16306727D01*
X-13881902Y-16482649D01*
X-13887000Y-16491623D01*
X-13976662Y-16684783D01*
X-13980225Y-16694470D01*
X-14035611Y-16894183D01*
X-16450277Y-16894183D01*
X-16488786Y-16740875D01*
X-16492106Y-16731124D01*
X-16577028Y-16535814D01*
X-16581895Y-16526739D01*
X-16697574Y-16347926D01*
X-16703864Y-16339757D01*
X-16847194Y-16182240D01*
X-16854727Y-16175215D01*
X-17021861Y-16043222D01*
X-17030444Y-16037520D01*
X-17067398Y-16017120D01*
X-17117369Y-15966687D01*
X-17132141Y-15897245D01*
X-17107025Y-15830839D01*
X-17079673Y-15804232D01*
X-17045001Y-15779501D01*
X-16900140Y-15676173D01*
X-16887715Y-15663792D01*
X-16765582Y-15542084D01*
X-16741904Y-15518489D01*
X-16682406Y-15435689D01*
X-16614565Y-15341277D01*
X-16611547Y-15337077D01*
X-16512570Y-15136811D01*
X-16447630Y-14923069D01*
X-16418471Y-14701590D01*
X-16416844Y-14635000D01*
X-16435148Y-14412361D01*
X-16449761Y-14354183D01*
X-14035611Y-14354183D01*
X-14034088Y-14362607D01*
X-14021708Y-14366000D01*
X-12972115Y-14366000D01*
X-12956876Y-14361525D01*
X-12955671Y-14360135D01*
X-12954000Y-14352452D01*
X-12954000Y-12352115D01*
X-12958475Y-12336876D01*
X-12959865Y-12335671D01*
X-12967548Y-12334000D01*
X-14016775Y-12334000D01*
X-14030306Y-12337973D01*
X-14031743Y-12347966D01*
X-14001435Y-12482446D01*
X-13998355Y-12492275D01*
X-13918230Y-12689603D01*
X-13913587Y-12698794D01*
X-13802306Y-12880388D01*
X-13796223Y-12888699D01*
X-13656787Y-13049667D01*
X-13649420Y-13056883D01*
X-13485566Y-13192916D01*
X-13477119Y-13198831D01*
X-13407521Y-13239501D01*
X-13358797Y-13291140D01*
X-13345726Y-13360923D01*
X-13372457Y-13426694D01*
X-13412913Y-13460053D01*
X-13421538Y-13464542D01*
X-13430262Y-13470036D01*
X-13600567Y-13597905D01*
X-13608274Y-13604748D01*
X-13755410Y-13758717D01*
X-13761896Y-13766727D01*
X-13881902Y-13942649D01*
X-13887000Y-13951623D01*
X-13976662Y-14144783D01*
X-13980225Y-14154470D01*
X-14035611Y-14354183D01*
X-16449761Y-14354183D01*
X-16489569Y-14195702D01*
X-16578646Y-13990840D01*
X-16699986Y-13803277D01*
X-16703468Y-13799450D01*
X-16847202Y-13641488D01*
X-16878254Y-13577642D01*
X-16869859Y-13507143D01*
X-16824683Y-13452375D01*
X-16798239Y-13438706D01*
X-16691703Y-13398767D01*
X-16683295Y-13395615D01*
X-16566739Y-13308261D01*
X-16479385Y-13191705D01*
X-16428255Y-13055316D01*
X-16421500Y-12993134D01*
X-16421500Y-11814183D01*
X-14035611Y-11814183D01*
X-14034088Y-11822607D01*
X-14021708Y-11826000D01*
X-12972115Y-11826000D01*
X-12956876Y-11821525D01*
X-12955671Y-11820135D01*
X-12954000Y-11812452D01*
X-12954000Y-9812115D01*
X-12958475Y-9796876D01*
X-12959865Y-9795671D01*
X-12967548Y-9794000D01*
X-14016775Y-9794000D01*
X-14030306Y-9797973D01*
X-14031743Y-9807966D01*
X-14001435Y-9942446D01*
X-13998355Y-9952275D01*
X-13918230Y-10149603D01*
X-13913587Y-10158794D01*
X-13802306Y-10340388D01*
X-13796223Y-10348699D01*
X-13656787Y-10509667D01*
X-13649420Y-10516883D01*
X-13485566Y-10652916D01*
X-13477119Y-10658831D01*
X-13407521Y-10699501D01*
X-13358797Y-10751140D01*
X-13345726Y-10820923D01*
X-13372457Y-10886694D01*
X-13412913Y-10920053D01*
X-13421538Y-10924542D01*
X-13430262Y-10930036D01*
X-13600567Y-11057905D01*
X-13608274Y-11064748D01*
X-13755410Y-11218717D01*
X-13761896Y-11226727D01*
X-13881902Y-11402649D01*
X-13887000Y-11411623D01*
X-13976662Y-11604783D01*
X-13980225Y-11614470D01*
X-14035611Y-11814183D01*
X-16421500Y-11814183D01*
X-16421500Y-11196866D01*
X-16428255Y-11134684D01*
X-16479385Y-10998295D01*
X-16566739Y-10881739D01*
X-16683295Y-10794385D01*
X-16819684Y-10743255D01*
X-16881866Y-10736500D01*
X-18678134Y-10736500D01*
X-18740316Y-10743255D01*
X-18876705Y-10794385D01*
X-18993261Y-10881739D01*
X-19080615Y-10998295D01*
X-19131745Y-11134684D01*
X-19138500Y-11196866D01*
X-19138500Y-12993134D01*
X-19131745Y-13055316D01*
X-19080615Y-13191705D01*
X-18993261Y-13308261D01*
X-18876705Y-13395615D01*
X-18868296Y-13398767D01*
X-18868295Y-13398768D01*
X-18759549Y-13439535D01*
X-18702784Y-13482176D01*
X-18678084Y-13548738D01*
X-18693291Y-13618087D01*
X-18712684Y-13644568D01*
X-18821767Y-13758717D01*
X-18839371Y-13777138D01*
X-18965257Y-13961680D01*
X-18980997Y-13995590D01*
X-19050250Y-14144783D01*
X-19059312Y-14164305D01*
X-19119011Y-14379570D01*
X-19142749Y-14601695D01*
X-20491500Y-14601695D01*
X-20491500Y-9274183D01*
X-14035611Y-9274183D01*
X-14034088Y-9282607D01*
X-14021708Y-9286000D01*
X-12972115Y-9286000D01*
X-12956876Y-9281525D01*
X-12955671Y-9280135D01*
X-12954000Y-9272452D01*
X-12954000Y-8223102D01*
X-12957918Y-8209758D01*
X-12972194Y-8207771D01*
X-13010676Y-8213660D01*
X-13020712Y-8216051D01*
X-13223132Y-8282212D01*
X-13232641Y-8286209D01*
X-13421537Y-8384542D01*
X-13430262Y-8390036D01*
X-13600567Y-8517905D01*
X-13608274Y-8524748D01*
X-13755410Y-8678717D01*
X-13761896Y-8686727D01*
X-13881902Y-8862649D01*
X-13887000Y-8871623D01*
X-13976662Y-9064783D01*
X-13980225Y-9074470D01*
X-14035611Y-9274183D01*
X-20491500Y-9274183D01*
X-20491500Y2892034D01*
X-16571743Y2892034D01*
X-16541435Y2757554D01*
X-16538355Y2747725D01*
X-16458230Y2550397D01*
X-16453587Y2541206D01*
X-16342306Y2359612D01*
X-16336223Y2351301D01*
X-16196787Y2190333D01*
X-16189420Y2183117D01*
X-16025566Y2047084D01*
X-16017119Y2041169D01*
X-15833244Y1933721D01*
X-15823958Y1929271D01*
X-15624999Y1853297D01*
X-15615101Y1850421D01*
X-15511750Y1829394D01*
X-15497701Y1830590D01*
X-15494000Y1840935D01*
X-15494000Y2887885D01*
X-15498475Y2903124D01*
X-15499865Y2904329D01*
X-15507548Y2906000D01*
X-16556775Y2906000D01*
X-16570306Y2902027D01*
X-16571743Y2892034D01*
X-20491500Y2892034D01*
X-20491500Y3425817D01*
X-16575611Y3425817D01*
X-16574088Y3417393D01*
X-16561708Y3414000D01*
X-15512115Y3414000D01*
X-15496876Y3418475D01*
X-15495671Y3419865D01*
X-15494000Y3427548D01*
X-15494000Y5427885D01*
X-15498475Y5443124D01*
X-15499865Y5444329D01*
X-15507548Y5446000D01*
X-16556775Y5446000D01*
X-16570306Y5442027D01*
X-16571743Y5432034D01*
X-16541435Y5297554D01*
X-16538355Y5287725D01*
X-16458230Y5090397D01*
X-16453587Y5081206D01*
X-16342306Y4899612D01*
X-16336223Y4891301D01*
X-16196787Y4730333D01*
X-16189420Y4723117D01*
X-16025566Y4587084D01*
X-16017119Y4581169D01*
X-15947521Y4540499D01*
X-15898797Y4488860D01*
X-15885726Y4419077D01*
X-15912457Y4353306D01*
X-15952913Y4319947D01*
X-15961538Y4315458D01*
X-15970262Y4309964D01*
X-16140567Y4182095D01*
X-16148274Y4175252D01*
X-16295410Y4021283D01*
X-16301896Y4013273D01*
X-16421902Y3837351D01*
X-16427000Y3828377D01*
X-16516662Y3635217D01*
X-16520225Y3625530D01*
X-16575611Y3425817D01*
X-20491500Y3425817D01*
X-20491500Y5965817D01*
X-16575611Y5965817D01*
X-16574088Y5957393D01*
X-16561708Y5954000D01*
X-15512115Y5954000D01*
X-15496876Y5958475D01*
X-15495671Y5959865D01*
X-15494000Y5967548D01*
X-15494000Y7016898D01*
X-15497918Y7030242D01*
X-15512194Y7032229D01*
X-15550676Y7026340D01*
X-15560712Y7023949D01*
X-15763132Y6957788D01*
X-15772641Y6953791D01*
X-15961537Y6855458D01*
X-15970262Y6849964D01*
X-16140567Y6722095D01*
X-16148274Y6715252D01*
X-16295410Y6561283D01*
X-16301896Y6553273D01*
X-16421902Y6377351D01*
X-16427000Y6368377D01*
X-16516662Y6175217D01*
X-16520225Y6165530D01*
X-16575611Y5965817D01*
X-20491500Y5965817D01*
X-20491500Y8505817D01*
X-14035611Y8505817D01*
X-14034088Y8497393D01*
X-14021708Y8494000D01*
X-12972115Y8494000D01*
X-12956876Y8498475D01*
X-12955671Y8499865D01*
X-12954000Y8507548D01*
X-12954000Y10507885D01*
X-12958475Y10523124D01*
X-12959865Y10524329D01*
X-12967548Y10526000D01*
X-14016775Y10526000D01*
X-14030306Y10522027D01*
X-14031743Y10512034D01*
X-14001435Y10377554D01*
X-13998355Y10367725D01*
X-13918230Y10170397D01*
X-13913587Y10161206D01*
X-13802306Y9979612D01*
X-13796223Y9971301D01*
X-13656787Y9810333D01*
X-13649420Y9803117D01*
X-13485566Y9667084D01*
X-13477119Y9661169D01*
X-13407521Y9620499D01*
X-13358797Y9568860D01*
X-13345726Y9499077D01*
X-13372457Y9433306D01*
X-13412913Y9399947D01*
X-13421538Y9395458D01*
X-13430262Y9389964D01*
X-13600567Y9262095D01*
X-13608274Y9255252D01*
X-13755410Y9101283D01*
X-13761896Y9093273D01*
X-13881902Y8917351D01*
X-13887000Y8908377D01*
X-13976662Y8715217D01*
X-13980225Y8705530D01*
X-14035611Y8505817D01*
X-20491500Y8505817D01*
X-20491500Y11045817D01*
X-14035611Y11045817D01*
X-14034088Y11037393D01*
X-14021708Y11034000D01*
X-12972115Y11034000D01*
X-12956876Y11038475D01*
X-12955671Y11039865D01*
X-12954000Y11047548D01*
X-12954000Y12096898D01*
X-12957918Y12110242D01*
X-12972194Y12112229D01*
X-13010676Y12106340D01*
X-13020712Y12103949D01*
X-13223132Y12037788D01*
X-13232641Y12033791D01*
X-13421537Y11935458D01*
X-13430262Y11929964D01*
X-13600567Y11802095D01*
X-13608274Y11795252D01*
X-13755410Y11641283D01*
X-13761896Y11633273D01*
X-13881902Y11457351D01*
X-13887000Y11448377D01*
X-13976662Y11255217D01*
X-13980225Y11245530D01*
X-14035611Y11045817D01*
X-20491500Y11045817D01*
X-20491500Y22500000D01*
X-18613452Y22500000D01*
X-18593657Y22122291D01*
X-18534489Y21748721D01*
X-18436597Y21383382D01*
X-18301053Y21030277D01*
X-18299555Y21027337D01*
X-18226144Y20883261D01*
X-18129341Y20693274D01*
X-17923344Y20376066D01*
X-17685318Y20082129D01*
X-17417871Y19814682D01*
X-17123934Y19576656D01*
X-16806726Y19370659D01*
X-16803792Y19369164D01*
X-16803785Y19369160D01*
X-16472663Y19200445D01*
X-16469723Y19198947D01*
X-16116618Y19063403D01*
X-15751279Y18965511D01*
X-15552842Y18934082D01*
X-15380957Y18906857D01*
X-15380949Y18906856D01*
X-15377709Y18906343D01*
X-15094489Y18891500D01*
X-14905511Y18891500D01*
X-14622291Y18906343D01*
X-14619051Y18906856D01*
X-14619043Y18906857D01*
X-14447158Y18934082D01*
X-14248721Y18965511D01*
X-13883382Y19063403D01*
X-13530277Y19198947D01*
X-13527337Y19200445D01*
X-13196215Y19369160D01*
X-13196208Y19369164D01*
X-13193274Y19370659D01*
X-12876066Y19576656D01*
X-12582129Y19814682D01*
X-12314682Y20082129D01*
X-12076656Y20376066D01*
X-11870659Y20693274D01*
X-11773855Y20883261D01*
X-11700445Y21027337D01*
X-11698947Y21030277D01*
X-11563403Y21383382D01*
X-11465511Y21748721D01*
X-11406343Y22122291D01*
X-11400001Y22243305D01*
X-6538238Y22243305D01*
X-6537941Y22238152D01*
X-6537941Y22238149D01*
X-6532478Y22143410D01*
X-6525379Y22020285D01*
X-6524242Y22015239D01*
X-6524241Y22015233D01*
X-6504370Y21927061D01*
X-6476267Y21802361D01*
X-6392223Y21595384D01*
X-6341470Y21512562D01*
X-6278198Y21409312D01*
X-6275502Y21404912D01*
X-6129239Y21236062D01*
X-6125259Y21232758D01*
X-6120508Y21228813D01*
X-6080873Y21169910D01*
X-6079376Y21098929D01*
X-6116492Y21038407D01*
X-6156765Y21013888D01*
X-6272194Y20970615D01*
X-6388750Y20883261D01*
X-6476104Y20766705D01*
X-6527234Y20630316D01*
X-6533989Y20568134D01*
X-6533989Y18771866D01*
X-6527234Y18709684D01*
X-6476104Y18573295D01*
X-6388750Y18456739D01*
X-6272194Y18369385D01*
X-6135805Y18318255D01*
X-6073623Y18311500D01*
X-4277355Y18311500D01*
X-4215173Y18318255D01*
X-4078784Y18369385D01*
X-3981053Y18442630D01*
X-3914548Y18467478D01*
X-3845165Y18452425D01*
X-3829927Y18442632D01*
X-3732194Y18369385D01*
X-3595805Y18318255D01*
X-3533623Y18311500D01*
X-1737355Y18311500D01*
X-1675173Y18318255D01*
X-1538784Y18369385D01*
X-1422228Y18456739D01*
X-1334874Y18573295D01*
X-1283744Y18709684D01*
X-1276989Y18771866D01*
X-1276989Y20568134D01*
X-1283744Y20630316D01*
X-1334874Y20766705D01*
X-1422228Y20883261D01*
X-1538784Y20970615D01*
X-1551357Y20975328D01*
X-1657286Y21015040D01*
X-1714050Y21057682D01*
X-1738750Y21124244D01*
X-1723542Y21193592D01*
X-1701996Y21222273D01*
X-1601054Y21322863D01*
X-1597393Y21326511D01*
X-1554233Y21386574D01*
X-1470054Y21503723D01*
X-1467036Y21507923D01*
X-1446169Y21550143D01*
X-1370353Y21703547D01*
X-1370352Y21703549D01*
X-1368059Y21708189D01*
X-1303119Y21921931D01*
X-1273960Y22143410D01*
X-1272333Y22210000D01*
X-1275071Y22243305D01*
X1177251Y22243305D01*
X1177548Y22238152D01*
X1177548Y22238149D01*
X1183011Y22143410D01*
X1190110Y22020285D01*
X1191247Y22015239D01*
X1191248Y22015233D01*
X1211119Y21927061D01*
X1239222Y21802361D01*
X1323266Y21595384D01*
X1374019Y21512562D01*
X1437291Y21409312D01*
X1439987Y21404912D01*
X1586250Y21236062D01*
X1590230Y21232758D01*
X1594981Y21228813D01*
X1634616Y21169910D01*
X1636113Y21098929D01*
X1598997Y21038407D01*
X1558724Y21013888D01*
X1443295Y20970615D01*
X1326739Y20883261D01*
X1239385Y20766705D01*
X1188255Y20630316D01*
X1181500Y20568134D01*
X1181500Y18771866D01*
X1188255Y18709684D01*
X1239385Y18573295D01*
X1326739Y18456739D01*
X1443295Y18369385D01*
X1579684Y18318255D01*
X1641866Y18311500D01*
X3438134Y18311500D01*
X3500316Y18318255D01*
X3636705Y18369385D01*
X3734436Y18442630D01*
X3800941Y18467478D01*
X3870324Y18452425D01*
X3885562Y18442632D01*
X3983295Y18369385D01*
X4119684Y18318255D01*
X4181866Y18311500D01*
X5978134Y18311500D01*
X6040316Y18318255D01*
X6176705Y18369385D01*
X6293261Y18456739D01*
X6380615Y18573295D01*
X6431745Y18709684D01*
X6438500Y18771866D01*
X6438500Y20568134D01*
X6431745Y20630316D01*
X6380615Y20766705D01*
X6293261Y20883261D01*
X6176705Y20970615D01*
X6164132Y20975328D01*
X6058203Y21015040D01*
X6001439Y21057682D01*
X5976739Y21124244D01*
X5991947Y21193592D01*
X6013493Y21222273D01*
X6114435Y21322863D01*
X6118096Y21326511D01*
X6123320Y21333781D01*
X6179312Y21377431D01*
X6250015Y21383881D01*
X6314741Y21349355D01*
X12029595Y15634500D01*
X12063621Y15572188D01*
X12066500Y15545405D01*
X12066500Y13398767D01*
X12065973Y13387584D01*
X12064298Y13380091D01*
X12064547Y13372165D01*
X12064547Y13372164D01*
X12066438Y13312014D01*
X12066500Y13308055D01*
X12066500Y13280144D01*
X12066997Y13276210D01*
X12066997Y13276209D01*
X12067005Y13276144D01*
X12067938Y13264307D01*
X12069327Y13220111D01*
X12074978Y13200661D01*
X12078987Y13181300D01*
X12081526Y13161203D01*
X12084445Y13153832D01*
X12084445Y13153830D01*
X12097804Y13120088D01*
X12101649Y13108858D01*
X12113982Y13066407D01*
X12118015Y13059588D01*
X12118017Y13059583D01*
X12124293Y13048972D01*
X12132988Y13031224D01*
X12140448Y13012383D01*
X12145110Y13005967D01*
X12145110Y13005966D01*
X12166436Y12976613D01*
X12172952Y12966693D01*
X12195458Y12928638D01*
X12209779Y12914317D01*
X12222619Y12899284D01*
X12234528Y12882893D01*
X12240634Y12877842D01*
X12268605Y12854702D01*
X12277384Y12846712D01*
X14569595Y10554501D01*
X14603621Y10492189D01*
X14606500Y10465406D01*
X14606500Y8189394D01*
X14586498Y8121273D01*
X14552771Y8086181D01*
X14400211Y7979357D01*
X14400208Y7979355D01*
X14395700Y7976198D01*
X14233802Y7814300D01*
X14102477Y7626749D01*
X14100154Y7621767D01*
X14100151Y7621762D01*
X14015214Y7439612D01*
X14005716Y7419243D01*
X14004294Y7413935D01*
X14004293Y7413933D01*
X13965815Y7270333D01*
X13946457Y7198087D01*
X13926502Y6970000D01*
X13946457Y6741913D01*
X13947881Y6736600D01*
X13947881Y6736598D01*
X14002778Y6531723D01*
X14005716Y6520757D01*
X14008039Y6515776D01*
X14008039Y6515775D01*
X14100151Y6318238D01*
X14100154Y6318233D01*
X14102477Y6313251D01*
X14175902Y6208389D01*
X14205913Y6165530D01*
X14233802Y6125700D01*
X14395700Y5963802D01*
X14400208Y5960645D01*
X14400211Y5960643D01*
X14478389Y5905902D01*
X14583251Y5832477D01*
X14588233Y5830154D01*
X14588238Y5830151D01*
X14785775Y5738039D01*
X14790757Y5735716D01*
X14796065Y5734294D01*
X14796067Y5734293D01*
X15006598Y5677881D01*
X15006600Y5677881D01*
X15011913Y5676457D01*
X15240000Y5656502D01*
X15468087Y5676457D01*
X15473400Y5677881D01*
X15473402Y5677881D01*
X15683933Y5734293D01*
X15683935Y5734294D01*
X15689243Y5735716D01*
X15694225Y5738039D01*
X15891762Y5830151D01*
X15891767Y5830154D01*
X15896749Y5832477D01*
X16001611Y5905902D01*
X16079789Y5960643D01*
X16079792Y5960645D01*
X16084300Y5963802D01*
X16246198Y6125700D01*
X16249357Y6130211D01*
X16356181Y6282771D01*
X16411638Y6327099D01*
X16459394Y6336500D01*
X16560606Y6336500D01*
X16628727Y6316498D01*
X16663819Y6282771D01*
X16770643Y6130211D01*
X16773802Y6125700D01*
X16935700Y5963802D01*
X16940208Y5960645D01*
X16940211Y5960643D01*
X17018389Y5905902D01*
X17123251Y5832477D01*
X17128233Y5830154D01*
X17128238Y5830151D01*
X17325775Y5738039D01*
X17330757Y5735716D01*
X17336065Y5734294D01*
X17336067Y5734293D01*
X17546598Y5677881D01*
X17546600Y5677881D01*
X17551913Y5676457D01*
X17780000Y5656502D01*
X18008087Y5676457D01*
X18013400Y5677881D01*
X18013402Y5677881D01*
X18223933Y5734293D01*
X18223935Y5734294D01*
X18229243Y5735716D01*
X18234225Y5738039D01*
X18431762Y5830151D01*
X18431767Y5830154D01*
X18436749Y5832477D01*
X18541611Y5905902D01*
X18619789Y5960643D01*
X18619792Y5960645D01*
X18624300Y5963802D01*
X18786198Y6125700D01*
X18814088Y6165530D01*
X18844098Y6208389D01*
X18917523Y6313251D01*
X18919846Y6318233D01*
X18919849Y6318238D01*
X19011961Y6515775D01*
X19011961Y6515776D01*
X19014284Y6520757D01*
X19017223Y6531723D01*
X19072119Y6736598D01*
X19072119Y6736600D01*
X19073543Y6741913D01*
X19093498Y6970000D01*
X19073543Y7198087D01*
X19054185Y7270333D01*
X19015707Y7413933D01*
X19015706Y7413935D01*
X19014284Y7419243D01*
X19004786Y7439612D01*
X18919849Y7621762D01*
X18919846Y7621767D01*
X18917523Y7626749D01*
X18786198Y7814300D01*
X18624300Y7976198D01*
X18619792Y7979355D01*
X18619789Y7979357D01*
X18467228Y8086181D01*
X18436749Y8107523D01*
X18431767Y8109846D01*
X18431762Y8109849D01*
X18234225Y8201961D01*
X18234224Y8201961D01*
X18229243Y8204284D01*
X18223935Y8205706D01*
X18223933Y8205707D01*
X18013402Y8262119D01*
X18013400Y8262119D01*
X18008087Y8263543D01*
X17780000Y8283498D01*
X17551913Y8263543D01*
X17546600Y8262119D01*
X17546598Y8262119D01*
X17336067Y8205707D01*
X17336065Y8205706D01*
X17330757Y8204284D01*
X17325776Y8201961D01*
X17325775Y8201961D01*
X17128238Y8109849D01*
X17128233Y8109846D01*
X17123251Y8107523D01*
X17092772Y8086181D01*
X16940211Y7979357D01*
X16940208Y7979355D01*
X16935700Y7976198D01*
X16773802Y7814300D01*
X16770645Y7809792D01*
X16770643Y7809789D01*
X16663819Y7657229D01*
X16608362Y7612901D01*
X16560606Y7603500D01*
X16459394Y7603500D01*
X16391273Y7623502D01*
X16356181Y7657229D01*
X16249357Y7809789D01*
X16249355Y7809792D01*
X16246198Y7814300D01*
X16084300Y7976198D01*
X16079792Y7979355D01*
X16079789Y7979357D01*
X15927229Y8086181D01*
X15882901Y8141638D01*
X15873500Y8189394D01*
X15873500Y10701237D01*
X15874027Y10712421D01*
X15875701Y10719909D01*
X15873562Y10787968D01*
X15873500Y10791925D01*
X15873500Y10819856D01*
X15872994Y10823862D01*
X15872061Y10835708D01*
X15870922Y10871963D01*
X15870673Y10879890D01*
X15865022Y10899342D01*
X15861014Y10918694D01*
X15859468Y10930932D01*
X15859467Y10930934D01*
X15858474Y10938797D01*
X15842194Y10979914D01*
X15838359Y10991115D01*
X15826018Y11033594D01*
X15821985Y11040413D01*
X15821983Y11040418D01*
X15815707Y11051029D01*
X15807010Y11068779D01*
X15799552Y11087617D01*
X15773571Y11123377D01*
X15767053Y11133299D01*
X15748578Y11164540D01*
X15748574Y11164545D01*
X15744542Y11171363D01*
X15730218Y11185687D01*
X15717376Y11200722D01*
X15705472Y11217107D01*
X15671406Y11245289D01*
X15662627Y11253278D01*
X13370405Y13545500D01*
X13336379Y13607812D01*
X13333500Y13634595D01*
X13333500Y14590000D01*
X13926502Y14590000D01*
X13946457Y14361913D01*
X14005716Y14140757D01*
X14008039Y14135776D01*
X14008039Y14135775D01*
X14100151Y13938238D01*
X14100154Y13938233D01*
X14102477Y13933251D01*
X14233802Y13745700D01*
X14395700Y13583802D01*
X14400208Y13580645D01*
X14400211Y13580643D01*
X14450401Y13545500D01*
X14583251Y13452477D01*
X14588233Y13450154D01*
X14588238Y13450151D01*
X14723867Y13386907D01*
X14790757Y13355716D01*
X14796065Y13354294D01*
X14796067Y13354293D01*
X15006598Y13297881D01*
X15006600Y13297881D01*
X15011913Y13296457D01*
X15240000Y13276502D01*
X15468087Y13296457D01*
X15473400Y13297881D01*
X15473402Y13297881D01*
X15683933Y13354293D01*
X15683935Y13354294D01*
X15689243Y13355716D01*
X15756133Y13386907D01*
X15891762Y13450151D01*
X15891767Y13450154D01*
X15896749Y13452477D01*
X16029599Y13545500D01*
X16079789Y13580643D01*
X16079792Y13580645D01*
X16084300Y13583802D01*
X16246198Y13745700D01*
X16377523Y13933251D01*
X16379846Y13938233D01*
X16379849Y13938238D01*
X16395805Y13972457D01*
X16442722Y14025742D01*
X16510999Y14045203D01*
X16578959Y14024661D01*
X16624195Y13972457D01*
X16640151Y13938238D01*
X16640154Y13938233D01*
X16642477Y13933251D01*
X16773802Y13745700D01*
X16935700Y13583802D01*
X16940208Y13580645D01*
X16940211Y13580643D01*
X16990401Y13545500D01*
X17123251Y13452477D01*
X17128233Y13450154D01*
X17128238Y13450151D01*
X17263867Y13386907D01*
X17330757Y13355716D01*
X17336065Y13354294D01*
X17336067Y13354293D01*
X17546598Y13297881D01*
X17546600Y13297881D01*
X17551913Y13296457D01*
X17780000Y13276502D01*
X18008087Y13296457D01*
X18013400Y13297881D01*
X18013402Y13297881D01*
X18223933Y13354293D01*
X18223935Y13354294D01*
X18229243Y13355716D01*
X18296133Y13386907D01*
X18431762Y13450151D01*
X18431767Y13450154D01*
X18436749Y13452477D01*
X18569599Y13545500D01*
X18619789Y13580643D01*
X18619792Y13580645D01*
X18624300Y13583802D01*
X18786198Y13745700D01*
X18917523Y13933251D01*
X18919846Y13938233D01*
X18919849Y13938238D01*
X19011961Y14135775D01*
X19011961Y14135776D01*
X19014284Y14140757D01*
X19073543Y14361913D01*
X19093498Y14590000D01*
X19073543Y14818087D01*
X19019812Y15018614D01*
X19015707Y15033933D01*
X19015706Y15033935D01*
X19014284Y15039243D01*
X18986954Y15097853D01*
X18919849Y15241762D01*
X18919846Y15241767D01*
X18917523Y15246749D01*
X18816313Y15391291D01*
X18789357Y15429789D01*
X18789355Y15429792D01*
X18786198Y15434300D01*
X18624300Y15596198D01*
X18619792Y15599355D01*
X18619789Y15599357D01*
X18541611Y15654098D01*
X18436749Y15727523D01*
X18431767Y15729846D01*
X18431762Y15729849D01*
X18234225Y15821961D01*
X18234224Y15821961D01*
X18229243Y15824284D01*
X18223935Y15825706D01*
X18223933Y15825707D01*
X18013402Y15882119D01*
X18013400Y15882119D01*
X18008087Y15883543D01*
X17780000Y15903498D01*
X17551913Y15883543D01*
X17546600Y15882119D01*
X17546598Y15882119D01*
X17336067Y15825707D01*
X17336065Y15825706D01*
X17330757Y15824284D01*
X17325776Y15821961D01*
X17325775Y15821961D01*
X17128238Y15729849D01*
X17128233Y15729846D01*
X17123251Y15727523D01*
X17018389Y15654098D01*
X16940211Y15599357D01*
X16940208Y15599355D01*
X16935700Y15596198D01*
X16773802Y15434300D01*
X16770645Y15429792D01*
X16770643Y15429789D01*
X16743687Y15391291D01*
X16642477Y15246749D01*
X16640154Y15241767D01*
X16640151Y15241762D01*
X16624195Y15207543D01*
X16577278Y15154258D01*
X16509001Y15134797D01*
X16441041Y15155339D01*
X16395805Y15207543D01*
X16379849Y15241762D01*
X16379846Y15241767D01*
X16377523Y15246749D01*
X16276313Y15391291D01*
X16249357Y15429789D01*
X16249355Y15429792D01*
X16246198Y15434300D01*
X16084300Y15596198D01*
X16079792Y15599355D01*
X16079789Y15599357D01*
X16001611Y15654098D01*
X15896749Y15727523D01*
X15891767Y15729846D01*
X15891762Y15729849D01*
X15694225Y15821961D01*
X15694224Y15821961D01*
X15689243Y15824284D01*
X15683935Y15825706D01*
X15683933Y15825707D01*
X15473402Y15882119D01*
X15473400Y15882119D01*
X15468087Y15883543D01*
X15240000Y15903498D01*
X15011913Y15883543D01*
X15006600Y15882119D01*
X15006598Y15882119D01*
X14796067Y15825707D01*
X14796065Y15825706D01*
X14790757Y15824284D01*
X14785776Y15821961D01*
X14785775Y15821961D01*
X14588238Y15729849D01*
X14588233Y15729846D01*
X14583251Y15727523D01*
X14478389Y15654098D01*
X14400211Y15599357D01*
X14400208Y15599355D01*
X14395700Y15596198D01*
X14233802Y15434300D01*
X14230645Y15429792D01*
X14230643Y15429789D01*
X14203687Y15391291D01*
X14102477Y15246749D01*
X14100154Y15241767D01*
X14100151Y15241762D01*
X14033046Y15097853D01*
X14005716Y15039243D01*
X14004294Y15033935D01*
X14004293Y15033933D01*
X14000188Y15018614D01*
X13946457Y14818087D01*
X13926502Y14590000D01*
X13333500Y14590000D01*
X13333500Y15781233D01*
X13334027Y15792416D01*
X13335702Y15799909D01*
X13333562Y15867986D01*
X13333500Y15871945D01*
X13333500Y15899856D01*
X13332995Y15903856D01*
X13332062Y15915699D01*
X13330922Y15951971D01*
X13330673Y15959890D01*
X13325022Y15979342D01*
X13321014Y15998694D01*
X13319467Y16010937D01*
X13318474Y16018797D01*
X13315556Y16026168D01*
X13302200Y16059903D01*
X13298355Y16071130D01*
X13297721Y16073313D01*
X13286018Y16113593D01*
X13275707Y16131028D01*
X13267012Y16148776D01*
X13259552Y16167617D01*
X13233564Y16203387D01*
X13227048Y16213307D01*
X13208580Y16244535D01*
X13208578Y16244538D01*
X13204542Y16251362D01*
X13190221Y16265683D01*
X13177380Y16280717D01*
X13170131Y16290694D01*
X13165472Y16297107D01*
X13131395Y16325298D01*
X13122616Y16333288D01*
X6955905Y22500000D01*
X11386548Y22500000D01*
X11406343Y22122291D01*
X11465511Y21748721D01*
X11563403Y21383382D01*
X11698947Y21030277D01*
X11700445Y21027337D01*
X11773856Y20883261D01*
X11870659Y20693274D01*
X12076656Y20376066D01*
X12314682Y20082129D01*
X12582129Y19814682D01*
X12876066Y19576656D01*
X13193274Y19370659D01*
X13196208Y19369164D01*
X13196215Y19369160D01*
X13527337Y19200445D01*
X13530277Y19198947D01*
X13883382Y19063403D01*
X14248721Y18965511D01*
X14447158Y18934082D01*
X14619043Y18906857D01*
X14619051Y18906856D01*
X14622291Y18906343D01*
X14905511Y18891500D01*
X15094489Y18891500D01*
X15377709Y18906343D01*
X15380949Y18906856D01*
X15380957Y18906857D01*
X15552842Y18934082D01*
X15751279Y18965511D01*
X16116618Y19063403D01*
X16469723Y19198947D01*
X16472663Y19200445D01*
X16803785Y19369160D01*
X16803792Y19369164D01*
X16806726Y19370659D01*
X17123934Y19576656D01*
X17417871Y19814682D01*
X17685318Y20082129D01*
X17923344Y20376066D01*
X18129341Y20693274D01*
X18226145Y20883261D01*
X18299555Y21027337D01*
X18301053Y21030277D01*
X18436597Y21383382D01*
X18534489Y21748721D01*
X18593657Y22122291D01*
X18613452Y22500000D01*
X18593657Y22877709D01*
X18592769Y22883320D01*
X18541003Y23210152D01*
X18534489Y23251279D01*
X18436597Y23616618D01*
X18431012Y23631169D01*
X18302237Y23966638D01*
X18301053Y23969723D01*
X18261077Y24048181D01*
X18130840Y24303785D01*
X18130836Y24303792D01*
X18129341Y24306726D01*
X18063934Y24407445D01*
X17925146Y24621159D01*
X17923344Y24623934D01*
X17685318Y24917871D01*
X17417871Y25185318D01*
X17123934Y25423344D01*
X16874631Y25585243D01*
X16809495Y25627543D01*
X16809492Y25627545D01*
X16806726Y25629341D01*
X16803792Y25630836D01*
X16803785Y25630840D01*
X16472663Y25799555D01*
X16469723Y25801053D01*
X16244565Y25887483D01*
X16119708Y25935411D01*
X16119706Y25935412D01*
X16116618Y25936597D01*
X15751279Y26034489D01*
X15517135Y26071574D01*
X15380957Y26093143D01*
X15380949Y26093144D01*
X15377709Y26093657D01*
X15094489Y26108500D01*
X14905511Y26108500D01*
X14622291Y26093657D01*
X14619051Y26093144D01*
X14619043Y26093143D01*
X14482865Y26071574D01*
X14248721Y26034489D01*
X13883382Y25936597D01*
X13880294Y25935412D01*
X13880292Y25935411D01*
X13755435Y25887483D01*
X13530277Y25801053D01*
X13527337Y25799555D01*
X13196215Y25630840D01*
X13196208Y25630836D01*
X13193274Y25629341D01*
X13190508Y25627545D01*
X13190505Y25627543D01*
X13125369Y25585243D01*
X12876066Y25423344D01*
X12582129Y25185318D01*
X12314682Y24917871D01*
X12076656Y24623934D01*
X12074854Y24621159D01*
X11936067Y24407445D01*
X11870659Y24306726D01*
X11869164Y24303792D01*
X11869160Y24303785D01*
X11738923Y24048181D01*
X11698947Y23969723D01*
X11697763Y23966638D01*
X11568989Y23631169D01*
X11563403Y23616618D01*
X11465511Y23251279D01*
X11458997Y23210152D01*
X11407232Y22883320D01*
X11406343Y22877709D01*
X11386548Y22500000D01*
X6955905Y22500000D01*
X6853652Y22602253D01*
X6846112Y22610539D01*
X6842000Y22617018D01*
X6792348Y22663644D01*
X6789507Y22666398D01*
X6769770Y22686135D01*
X6766573Y22688615D01*
X6757551Y22696320D01*
X6725321Y22726586D01*
X6718375Y22730405D01*
X6718372Y22730407D01*
X6707566Y22736348D01*
X6691047Y22747199D01*
X6690583Y22747559D01*
X6675041Y22759614D01*
X6667772Y22762759D01*
X6667768Y22762762D01*
X6634463Y22777174D01*
X6623813Y22782391D01*
X6585060Y22803695D01*
X6565437Y22808733D01*
X6546734Y22815137D01*
X6535420Y22820033D01*
X6535419Y22820033D01*
X6528145Y22823181D01*
X6520322Y22824420D01*
X6520312Y22824423D01*
X6484476Y22830099D01*
X6472856Y22832505D01*
X6437711Y22841528D01*
X6437710Y22841528D01*
X6430030Y22843500D01*
X6409776Y22843500D01*
X6390065Y22845051D01*
X6377886Y22846980D01*
X6370057Y22848220D01*
X6362165Y22847474D01*
X6354242Y22847723D01*
X6354319Y22850159D01*
X6296508Y22861358D01*
X6248557Y22904857D01*
X6162822Y23037383D01*
X6162820Y23037386D01*
X6160014Y23041723D01*
X6009670Y23206949D01*
X6005619Y23210148D01*
X6005615Y23210152D01*
X5838414Y23342200D01*
X5838410Y23342202D01*
X5834359Y23345402D01*
X5792569Y23368471D01*
X5742598Y23418903D01*
X5727826Y23488346D01*
X5752942Y23554752D01*
X5780294Y23581359D01*
X5955328Y23706208D01*
X5963200Y23712861D01*
X6114052Y23863188D01*
X6120730Y23871035D01*
X6245003Y24043980D01*
X6250313Y24052817D01*
X6344670Y24243733D01*
X6348469Y24253328D01*
X6410377Y24457090D01*
X6412555Y24467163D01*
X6413986Y24478038D01*
X6411775Y24492222D01*
X6398617Y24496000D01*
X1223225Y24496000D01*
X1209694Y24492027D01*
X1208257Y24482034D01*
X1238565Y24347554D01*
X1241645Y24337725D01*
X1321770Y24140397D01*
X1326413Y24131206D01*
X1437694Y23949612D01*
X1443777Y23941301D01*
X1583213Y23780333D01*
X1590580Y23773117D01*
X1754434Y23637084D01*
X1762881Y23631169D01*
X1831969Y23590797D01*
X1880693Y23539158D01*
X1893764Y23469375D01*
X1867033Y23403604D01*
X1826584Y23370248D01*
X1813607Y23363493D01*
X1809474Y23360390D01*
X1809471Y23360388D01*
X1639100Y23232470D01*
X1634965Y23229365D01*
X1480629Y23067862D01*
X1354743Y22883320D01*
X1316011Y22799879D01*
X1279471Y22721159D01*
X1260688Y22680695D01*
X1200989Y22465430D01*
X1177251Y22243305D01*
X-1275071Y22243305D01*
X-1290637Y22432639D01*
X-1345058Y22649298D01*
X-1434135Y22854160D01*
X-1555475Y23041723D01*
X-1705819Y23206949D01*
X-1709870Y23210148D01*
X-1709874Y23210152D01*
X-1877075Y23342200D01*
X-1877079Y23342202D01*
X-1881130Y23345402D01*
X-1922920Y23368471D01*
X-1972891Y23418903D01*
X-1987663Y23488346D01*
X-1962547Y23554752D01*
X-1935195Y23581359D01*
X-1760161Y23706208D01*
X-1752289Y23712861D01*
X-1601437Y23863188D01*
X-1594759Y23871035D01*
X-1470486Y24043980D01*
X-1465176Y24052817D01*
X-1370819Y24243733D01*
X-1367020Y24253328D01*
X-1305112Y24457090D01*
X-1302934Y24467163D01*
X-1301503Y24478038D01*
X-1303714Y24492222D01*
X-1316872Y24496000D01*
X-6492264Y24496000D01*
X-6505795Y24492027D01*
X-6507232Y24482034D01*
X-6476924Y24347554D01*
X-6473844Y24337725D01*
X-6393719Y24140397D01*
X-6389076Y24131206D01*
X-6277795Y23949612D01*
X-6271712Y23941301D01*
X-6132276Y23780333D01*
X-6124909Y23773117D01*
X-5961055Y23637084D01*
X-5952608Y23631169D01*
X-5883520Y23590797D01*
X-5834796Y23539158D01*
X-5821725Y23469375D01*
X-5848456Y23403604D01*
X-5888905Y23370248D01*
X-5901882Y23363493D01*
X-5906015Y23360390D01*
X-5906018Y23360388D01*
X-6076389Y23232470D01*
X-6080524Y23229365D01*
X-6234860Y23067862D01*
X-6360746Y22883320D01*
X-6399478Y22799879D01*
X-6436018Y22721159D01*
X-6454801Y22680695D01*
X-6514500Y22465430D01*
X-6538238Y22243305D01*
X-11400001Y22243305D01*
X-11386548Y22500000D01*
X-11406343Y22877709D01*
X-11407231Y22883320D01*
X-11458997Y23210152D01*
X-11465511Y23251279D01*
X-11563403Y23616618D01*
X-11568988Y23631169D01*
X-11697763Y23966638D01*
X-11698947Y23969723D01*
X-11738923Y24048181D01*
X-11869160Y24303785D01*
X-11869164Y24303792D01*
X-11870659Y24306726D01*
X-11936066Y24407445D01*
X-12074854Y24621159D01*
X-12076656Y24623934D01*
X-12314682Y24917871D01*
X-12412628Y25015817D01*
X-6511100Y25015817D01*
X-6509577Y25007393D01*
X-6497197Y25004000D01*
X-5447604Y25004000D01*
X-5432365Y25008475D01*
X-5431160Y25009865D01*
X-5429489Y25017548D01*
X-5429489Y25022115D01*
X-4921489Y25022115D01*
X-4917014Y25006876D01*
X-4915624Y25005671D01*
X-4907941Y25004000D01*
X-2907604Y25004000D01*
X-2892365Y25008475D01*
X-2891160Y25009865D01*
X-2889489Y25017548D01*
X-2889489Y25022115D01*
X-2381489Y25022115D01*
X-2377014Y25006876D01*
X-2375624Y25005671D01*
X-2367941Y25004000D01*
X-1317145Y25004000D01*
X-1303614Y25007973D01*
X-1302487Y25015817D01*
X1204389Y25015817D01*
X1205912Y25007393D01*
X1218292Y25004000D01*
X2267885Y25004000D01*
X2283124Y25008475D01*
X2284329Y25009865D01*
X2286000Y25017548D01*
X2286000Y25022115D01*
X2794000Y25022115D01*
X2798475Y25006876D01*
X2799865Y25005671D01*
X2807548Y25004000D01*
X4807885Y25004000D01*
X4823124Y25008475D01*
X4824329Y25009865D01*
X4826000Y25017548D01*
X4826000Y25022115D01*
X5334000Y25022115D01*
X5338475Y25006876D01*
X5339865Y25005671D01*
X5347548Y25004000D01*
X6398344Y25004000D01*
X6411875Y25007973D01*
X6413180Y25017053D01*
X6371214Y25184125D01*
X6367894Y25193876D01*
X6282972Y25389186D01*
X6278105Y25398261D01*
X6162426Y25577074D01*
X6156136Y25585243D01*
X6012806Y25742760D01*
X6005273Y25749785D01*
X5838139Y25881778D01*
X5829552Y25887483D01*
X5643117Y25990401D01*
X5633705Y25994631D01*
X5432959Y26065720D01*
X5422988Y26068354D01*
X5351837Y26081028D01*
X5338540Y26079568D01*
X5334000Y26065011D01*
X5334000Y25022115D01*
X4826000Y25022115D01*
X4826000Y26066898D01*
X4822082Y26080242D01*
X4807806Y26082229D01*
X4769324Y26076340D01*
X4759288Y26073949D01*
X4556868Y26007788D01*
X4547359Y26003791D01*
X4358463Y25905458D01*
X4349738Y25899964D01*
X4179433Y25772095D01*
X4171726Y25765252D01*
X4024590Y25611283D01*
X4018104Y25603273D01*
X3913193Y25449479D01*
X3858282Y25404476D01*
X3787757Y25396305D01*
X3724010Y25427559D01*
X3703313Y25452043D01*
X3622427Y25577074D01*
X3616136Y25585243D01*
X3472806Y25742760D01*
X3465273Y25749785D01*
X3298139Y25881778D01*
X3289552Y25887483D01*
X3103117Y25990401D01*
X3093705Y25994631D01*
X2892959Y26065720D01*
X2882988Y26068354D01*
X2811837Y26081028D01*
X2798540Y26079568D01*
X2794000Y26065011D01*
X2794000Y25022115D01*
X2286000Y25022115D01*
X2286000Y26066898D01*
X2282082Y26080242D01*
X2267806Y26082229D01*
X2229324Y26076340D01*
X2219288Y26073949D01*
X2016868Y26007788D01*
X2007359Y26003791D01*
X1818463Y25905458D01*
X1809738Y25899964D01*
X1639433Y25772095D01*
X1631726Y25765252D01*
X1484590Y25611283D01*
X1478104Y25603273D01*
X1358098Y25427351D01*
X1353000Y25418377D01*
X1263338Y25225217D01*
X1259775Y25215530D01*
X1204389Y25015817D01*
X-1302487Y25015817D01*
X-1302309Y25017053D01*
X-1344275Y25184125D01*
X-1347595Y25193876D01*
X-1432517Y25389186D01*
X-1437384Y25398261D01*
X-1553063Y25577074D01*
X-1559353Y25585243D01*
X-1702683Y25742760D01*
X-1710216Y25749785D01*
X-1877350Y25881778D01*
X-1885937Y25887483D01*
X-2072372Y25990401D01*
X-2081784Y25994631D01*
X-2282530Y26065720D01*
X-2292501Y26068354D01*
X-2363652Y26081028D01*
X-2376949Y26079568D01*
X-2381489Y26065011D01*
X-2381489Y25022115D01*
X-2889489Y25022115D01*
X-2889489Y26066898D01*
X-2893407Y26080242D01*
X-2907683Y26082229D01*
X-2946165Y26076340D01*
X-2956201Y26073949D01*
X-3158621Y26007788D01*
X-3168130Y26003791D01*
X-3357026Y25905458D01*
X-3365751Y25899964D01*
X-3536056Y25772095D01*
X-3543763Y25765252D01*
X-3690899Y25611283D01*
X-3697385Y25603273D01*
X-3802296Y25449479D01*
X-3857207Y25404476D01*
X-3927732Y25396305D01*
X-3991479Y25427559D01*
X-4012176Y25452043D01*
X-4093062Y25577074D01*
X-4099353Y25585243D01*
X-4242683Y25742760D01*
X-4250216Y25749785D01*
X-4417350Y25881778D01*
X-4425937Y25887483D01*
X-4612372Y25990401D01*
X-4621784Y25994631D01*
X-4822530Y26065720D01*
X-4832501Y26068354D01*
X-4903652Y26081028D01*
X-4916949Y26079568D01*
X-4921489Y26065011D01*
X-4921489Y25022115D01*
X-5429489Y25022115D01*
X-5429489Y26066898D01*
X-5433407Y26080242D01*
X-5447683Y26082229D01*
X-5486165Y26076340D01*
X-5496201Y26073949D01*
X-5698621Y26007788D01*
X-5708130Y26003791D01*
X-5897026Y25905458D01*
X-5905751Y25899964D01*
X-6076056Y25772095D01*
X-6083763Y25765252D01*
X-6230899Y25611283D01*
X-6237385Y25603273D01*
X-6357391Y25427351D01*
X-6362489Y25418377D01*
X-6452151Y25225217D01*
X-6455714Y25215530D01*
X-6511100Y25015817D01*
X-12412628Y25015817D01*
X-12582129Y25185318D01*
X-12876066Y25423344D01*
X-13125369Y25585243D01*
X-13190505Y25627543D01*
X-13190508Y25627545D01*
X-13193274Y25629341D01*
X-13196208Y25630836D01*
X-13196215Y25630840D01*
X-13527337Y25799555D01*
X-13530277Y25801053D01*
X-13755435Y25887483D01*
X-13880292Y25935411D01*
X-13880294Y25935412D01*
X-13883382Y25936597D01*
X-14248721Y26034489D01*
X-14482865Y26071574D01*
X-14619043Y26093143D01*
X-14619051Y26093144D01*
X-14622291Y26093657D01*
X-14905511Y26108500D01*
X-15094489Y26108500D01*
X-15377709Y26093657D01*
X-15380949Y26093144D01*
X-15380957Y26093143D01*
X-15517135Y26071574D01*
X-15751279Y26034489D01*
X-16116618Y25936597D01*
X-16119706Y25935412D01*
X-16119708Y25935411D01*
X-16244565Y25887483D01*
X-16469723Y25801053D01*
X-16472663Y25799555D01*
X-16803785Y25630840D01*
X-16803792Y25630836D01*
X-16806726Y25629341D01*
X-16809492Y25627545D01*
X-16809495Y25627543D01*
X-16874631Y25585243D01*
X-17123934Y25423344D01*
X-17417871Y25185318D01*
X-17685318Y24917871D01*
X-17923344Y24623934D01*
X-17925146Y24621159D01*
X-18063933Y24407445D01*
X-18129341Y24306726D01*
X-18130836Y24303792D01*
X-18130840Y24303785D01*
X-18261077Y24048181D01*
X-18301053Y23969723D01*
X-18302237Y23966638D01*
X-18431011Y23631169D01*
X-18436597Y23616618D01*
X-18534489Y23251279D01*
X-18541003Y23210152D01*
X-18592768Y22883320D01*
X-18593657Y22877709D01*
X-18613452Y22500000D01*
X-20491500Y22500000D01*
X-20491500Y23446750D01*
X-20489754Y23467655D01*
X-20487230Y23482656D01*
X-20487230Y23482659D01*
X-20486424Y23487448D01*
X-20486271Y23500000D01*
X-20486961Y23504816D01*
X-20486961Y23504822D01*
X-20488613Y23516356D01*
X-20489766Y23539716D01*
X-20487947Y23581359D01*
X-20474648Y23885965D01*
X-20473690Y23896914D01*
X-20453882Y24047373D01*
X-20423981Y24274498D01*
X-20422073Y24285315D01*
X-20339647Y24657114D01*
X-20336802Y24667732D01*
X-20257194Y24920215D01*
X-20222282Y25030939D01*
X-20218526Y25041261D01*
X-20072780Y25393123D01*
X-20068138Y25403076D01*
X-20060172Y25418377D01*
X-19892294Y25740868D01*
X-19886799Y25750387D01*
X-19682180Y26071574D01*
X-19675876Y26080578D01*
X-19444038Y26382716D01*
X-19436972Y26391137D01*
X-19179686Y26671914D01*
X-19171914Y26679686D01*
X-18891137Y26936972D01*
X-18882716Y26944038D01*
X-18580578Y27175876D01*
X-18571574Y27182180D01*
X-18250387Y27386799D01*
X-18240867Y27392295D01*
X-17903067Y27568142D01*
X-17893123Y27572780D01*
X-17541254Y27718529D01*
X-17530939Y27722282D01*
X-17167731Y27836802D01*
X-17157114Y27839647D01*
X-16785307Y27922074D01*
X-16774498Y27923981D01*
X-16396913Y27973690D01*
X-16385965Y27974648D01*
X-16043446Y27989603D01*
X-16018571Y27988223D01*
X-16006276Y27986309D01*
X-15997374Y27987473D01*
X-15997372Y27987473D01*
X-15978601Y27989928D01*
X-15974714Y27990436D01*
X-15958379Y27991500D01*
X15950633Y27991500D01*
X15970018Y27990000D01*
G37*
%TD.AperFunction*%
%TA.AperFunction,Conductor*%
G36*
X-13888249Y5025322D02*
G01*
X-13860421Y4993489D01*
X-13800013Y4894912D01*
X-13653750Y4726062D01*
X-13481874Y4583368D01*
X-13465478Y4573787D01*
X-13408555Y4540524D01*
X-13359831Y4488886D01*
X-13346760Y4419103D01*
X-13373491Y4353331D01*
X-13413945Y4319973D01*
X-13426393Y4313493D01*
X-13430526Y4310390D01*
X-13430529Y4310388D01*
X-13600900Y4182470D01*
X-13605035Y4179365D01*
X-13630459Y4152760D01*
X-13698720Y4081329D01*
X-13759371Y4017862D01*
X-13762285Y4013590D01*
X-13762286Y4013589D01*
X-13867102Y3859934D01*
X-13922013Y3814931D01*
X-13992538Y3806760D01*
X-14056285Y3838014D01*
X-14076982Y3862498D01*
X-14157574Y3987074D01*
X-14163864Y3995243D01*
X-14307194Y4152760D01*
X-14314727Y4159785D01*
X-14481861Y4291778D01*
X-14490448Y4297483D01*
X-14527884Y4318149D01*
X-14577854Y4368581D01*
X-14592626Y4438024D01*
X-14567510Y4504429D01*
X-14540158Y4531036D01*
X-14364673Y4656208D01*
X-14356800Y4662861D01*
X-14205948Y4813188D01*
X-14199270Y4821035D01*
X-14071978Y4998181D01*
X-14070721Y4997278D01*
X-14023627Y5040638D01*
X-13953689Y5052855D01*
X-13888249Y5025322D01*
G37*
%TD.AperFunction*%
%TD*%
M02*
