%TF.GenerationSoftware,KiCad,Pcbnew,(6.0.5)*%
%TF.CreationDate,2022-06-01T19:50:55+01:00*%
%TF.ProjectId,OOEB-OBBB-PROJ-ARDC-SHEN-STAN-01,4f4f4542-2d4f-4424-9242-2d50524f4a2d,rev?*%
%TF.SameCoordinates,Original*%
%TF.FileFunction,Legend,Top*%
%TF.FilePolarity,Positive*%
%FSLAX46Y46*%
G04 Gerber Fmt 4.6, Leading zero omitted, Abs format (unit mm)*
G04 Created by KiCad (PCBNEW (6.0.5)) date 2022-06-01 19:50:55*
%MOMM*%
%LPD*%
G01*
G04 APERTURE LIST*
%ADD10C,0.150000*%
%ADD11C,0.120000*%
G04 APERTURE END LIST*
D10*
%TO.C,5V1*%
X12033333Y3707619D02*
X11557142Y3707619D01*
X11509523Y3231428D01*
X11557142Y3279047D01*
X11652380Y3326666D01*
X11890476Y3326666D01*
X11985714Y3279047D01*
X12033333Y3231428D01*
X12080952Y3136190D01*
X12080952Y2898095D01*
X12033333Y2802857D01*
X11985714Y2755238D01*
X11890476Y2707619D01*
X11652380Y2707619D01*
X11557142Y2755238D01*
X11509523Y2802857D01*
X12366666Y3707619D02*
X12700000Y2707619D01*
X13033333Y3707619D01*
X13890476Y2707619D02*
X13319047Y2707619D01*
X13604761Y2707619D02*
X13604761Y3707619D01*
X13509523Y3564761D01*
X13414285Y3469523D01*
X13319047Y3421904D01*
%TO.C,REF\u002A\u002A*%
X-1333333Y32512085D02*
X-1666666Y32988275D01*
X-1904761Y32512085D02*
X-1904761Y33512085D01*
X-1523809Y33512085D01*
X-1428571Y33464466D01*
X-1380952Y33416846D01*
X-1333333Y33321608D01*
X-1333333Y33178751D01*
X-1380952Y33083513D01*
X-1428571Y33035894D01*
X-1523809Y32988275D01*
X-1904761Y32988275D01*
X-904761Y33035894D02*
X-571428Y33035894D01*
X-428571Y32512085D02*
X-904761Y32512085D01*
X-904761Y33512085D01*
X-428571Y33512085D01*
X333333Y33035894D02*
X0Y33035894D01*
X0Y32512085D02*
X0Y33512085D01*
X476190Y33512085D01*
X999999Y33512085D02*
X999999Y33273989D01*
X761904Y33369227D02*
X999999Y33273989D01*
X1238095Y33369227D01*
X857142Y33083513D02*
X999999Y33273989D01*
X1142857Y33083513D01*
X1761904Y33512085D02*
X1761904Y33273989D01*
X1523809Y33369227D02*
X1761904Y33273989D01*
X1999999Y33369227D01*
X1619047Y33083513D02*
X1761904Y33273989D01*
X1904761Y33083513D01*
%TO.C,RSDA1*%
X18232380Y9208571D02*
X17756190Y8875238D01*
X18232380Y8637142D02*
X17232380Y8637142D01*
X17232380Y9018095D01*
X17280000Y9113333D01*
X17327619Y9160952D01*
X17422857Y9208571D01*
X17565714Y9208571D01*
X17660952Y9160952D01*
X17708571Y9113333D01*
X17756190Y9018095D01*
X17756190Y8637142D01*
X18184761Y9589523D02*
X18232380Y9732380D01*
X18232380Y9970476D01*
X18184761Y10065714D01*
X18137142Y10113333D01*
X18041904Y10160952D01*
X17946666Y10160952D01*
X17851428Y10113333D01*
X17803809Y10065714D01*
X17756190Y9970476D01*
X17708571Y9780000D01*
X17660952Y9684761D01*
X17613333Y9637142D01*
X17518095Y9589523D01*
X17422857Y9589523D01*
X17327619Y9637142D01*
X17280000Y9684761D01*
X17232380Y9780000D01*
X17232380Y10018095D01*
X17280000Y10160952D01*
X18232380Y10589523D02*
X17232380Y10589523D01*
X17232380Y10827619D01*
X17280000Y10970476D01*
X17375238Y11065714D01*
X17470476Y11113333D01*
X17660952Y11160952D01*
X17803809Y11160952D01*
X17994285Y11113333D01*
X18089523Y11065714D01*
X18184761Y10970476D01*
X18232380Y10827619D01*
X18232380Y10589523D01*
X17946666Y11541904D02*
X17946666Y12018095D01*
X18232380Y11446666D02*
X17232380Y11780000D01*
X18232380Y12113333D01*
X18232380Y12970476D02*
X18232380Y12399047D01*
X18232380Y12684761D02*
X17232380Y12684761D01*
X17375238Y12589523D01*
X17470476Y12494285D01*
X17518095Y12399047D01*
%TO.C,RSCL1*%
X15692380Y9232380D02*
X15216190Y8899047D01*
X15692380Y8660952D02*
X14692380Y8660952D01*
X14692380Y9041904D01*
X14740000Y9137142D01*
X14787619Y9184761D01*
X14882857Y9232380D01*
X15025714Y9232380D01*
X15120952Y9184761D01*
X15168571Y9137142D01*
X15216190Y9041904D01*
X15216190Y8660952D01*
X15644761Y9613333D02*
X15692380Y9756190D01*
X15692380Y9994285D01*
X15644761Y10089523D01*
X15597142Y10137142D01*
X15501904Y10184761D01*
X15406666Y10184761D01*
X15311428Y10137142D01*
X15263809Y10089523D01*
X15216190Y9994285D01*
X15168571Y9803809D01*
X15120952Y9708571D01*
X15073333Y9660952D01*
X14978095Y9613333D01*
X14882857Y9613333D01*
X14787619Y9660952D01*
X14740000Y9708571D01*
X14692380Y9803809D01*
X14692380Y10041904D01*
X14740000Y10184761D01*
X15597142Y11184761D02*
X15644761Y11137142D01*
X15692380Y10994285D01*
X15692380Y10899047D01*
X15644761Y10756190D01*
X15549523Y10660952D01*
X15454285Y10613333D01*
X15263809Y10565714D01*
X15120952Y10565714D01*
X14930476Y10613333D01*
X14835238Y10660952D01*
X14740000Y10756190D01*
X14692380Y10899047D01*
X14692380Y10994285D01*
X14740000Y11137142D01*
X14787619Y11184761D01*
X15692380Y12089523D02*
X15692380Y11613333D01*
X14692380Y11613333D01*
X15692380Y12946666D02*
X15692380Y12375238D01*
X15692380Y12660952D02*
X14692380Y12660952D01*
X14835238Y12565714D01*
X14930476Y12470476D01*
X14978095Y12375238D01*
%TO.C,TX1*%
X-19018095Y11327619D02*
X-18446666Y11327619D01*
X-18732380Y10327619D02*
X-18732380Y11327619D01*
X-18208571Y11327619D02*
X-17541904Y10327619D01*
X-17541904Y11327619D02*
X-18208571Y10327619D01*
X-16637142Y10327619D02*
X-17208571Y10327619D01*
X-16922857Y10327619D02*
X-16922857Y11327619D01*
X-17018095Y11184761D01*
X-17113333Y11089523D01*
X-17208571Y11041904D01*
%TO.C,I2C0*%
X-5357869Y16887619D02*
X-5357869Y17887619D01*
X-4929298Y17792380D02*
X-4881679Y17840000D01*
X-4786441Y17887619D01*
X-4548346Y17887619D01*
X-4453108Y17840000D01*
X-4405489Y17792380D01*
X-4357869Y17697142D01*
X-4357869Y17601904D01*
X-4405489Y17459047D01*
X-4976917Y16887619D01*
X-4357869Y16887619D01*
X-3357869Y16982857D02*
X-3405489Y16935238D01*
X-3548346Y16887619D01*
X-3643584Y16887619D01*
X-3786441Y16935238D01*
X-3881679Y17030476D01*
X-3929298Y17125714D01*
X-3976917Y17316190D01*
X-3976917Y17459047D01*
X-3929298Y17649523D01*
X-3881679Y17744761D01*
X-3786441Y17840000D01*
X-3643584Y17887619D01*
X-3548346Y17887619D01*
X-3405489Y17840000D01*
X-3357869Y17792380D01*
X-2738822Y17887619D02*
X-2643584Y17887619D01*
X-2548346Y17840000D01*
X-2500727Y17792380D01*
X-2453108Y17697142D01*
X-2405489Y17506666D01*
X-2405489Y17268571D01*
X-2453108Y17078095D01*
X-2500727Y16982857D01*
X-2548346Y16935238D01*
X-2643584Y16887619D01*
X-2738822Y16887619D01*
X-2834060Y16935238D01*
X-2881679Y16982857D01*
X-2929298Y17078095D01*
X-2976917Y17268571D01*
X-2976917Y17506666D01*
X-2929298Y17697142D01*
X-2881679Y17792380D01*
X-2834060Y17840000D01*
X-2738822Y17887619D01*
%TO.C,I2C1*%
X2357619Y16887619D02*
X2357619Y17887619D01*
X2786190Y17792380D02*
X2833809Y17840000D01*
X2929047Y17887619D01*
X3167142Y17887619D01*
X3262380Y17840000D01*
X3310000Y17792380D01*
X3357619Y17697142D01*
X3357619Y17601904D01*
X3310000Y17459047D01*
X2738571Y16887619D01*
X3357619Y16887619D01*
X4357619Y16982857D02*
X4310000Y16935238D01*
X4167142Y16887619D01*
X4071904Y16887619D01*
X3929047Y16935238D01*
X3833809Y17030476D01*
X3786190Y17125714D01*
X3738571Y17316190D01*
X3738571Y17459047D01*
X3786190Y17649523D01*
X3833809Y17744761D01*
X3929047Y17840000D01*
X4071904Y17887619D01*
X4167142Y17887619D01*
X4310000Y17840000D01*
X4357619Y17792380D01*
X5310000Y16887619D02*
X4738571Y16887619D01*
X5024285Y16887619D02*
X5024285Y17887619D01*
X4929047Y17744761D01*
X4833809Y17649523D01*
X4738571Y17601904D01*
%TO.C,RX0*%
X-16582857Y7787619D02*
X-16916190Y8263809D01*
X-17154285Y7787619D02*
X-17154285Y8787619D01*
X-16773333Y8787619D01*
X-16678095Y8740000D01*
X-16630476Y8692380D01*
X-16582857Y8597142D01*
X-16582857Y8454285D01*
X-16630476Y8359047D01*
X-16678095Y8311428D01*
X-16773333Y8263809D01*
X-17154285Y8263809D01*
X-16249523Y8787619D02*
X-15582857Y7787619D01*
X-15582857Y8787619D02*
X-16249523Y7787619D01*
X-15011428Y8787619D02*
X-14916190Y8787619D01*
X-14820952Y8740000D01*
X-14773333Y8692380D01*
X-14725714Y8597142D01*
X-14678095Y8406666D01*
X-14678095Y8168571D01*
X-14725714Y7978095D01*
X-14773333Y7882857D01*
X-14820952Y7835238D01*
X-14916190Y7787619D01*
X-15011428Y7787619D01*
X-15106666Y7835238D01*
X-15154285Y7882857D01*
X-15201904Y7978095D01*
X-15249523Y8168571D01*
X-15249523Y8406666D01*
X-15201904Y8597142D01*
X-15154285Y8692380D01*
X-15106666Y8740000D01*
X-15011428Y8787619D01*
%TO.C,GND1*%
X14001904Y8740000D02*
X13906666Y8787619D01*
X13763809Y8787619D01*
X13620952Y8740000D01*
X13525714Y8644761D01*
X13478095Y8549523D01*
X13430476Y8359047D01*
X13430476Y8216190D01*
X13478095Y8025714D01*
X13525714Y7930476D01*
X13620952Y7835238D01*
X13763809Y7787619D01*
X13859047Y7787619D01*
X14001904Y7835238D01*
X14049523Y7882857D01*
X14049523Y8216190D01*
X13859047Y8216190D01*
X14478095Y7787619D02*
X14478095Y8787619D01*
X15049523Y7787619D01*
X15049523Y8787619D01*
X15525714Y7787619D02*
X15525714Y8787619D01*
X15763809Y8787619D01*
X15906666Y8740000D01*
X16001904Y8644761D01*
X16049523Y8549523D01*
X16097142Y8359047D01*
X16097142Y8216190D01*
X16049523Y8025714D01*
X16001904Y7930476D01*
X15906666Y7835238D01*
X15763809Y7787619D01*
X15525714Y7787619D01*
X17049523Y7787619D02*
X16478095Y7787619D01*
X16763809Y7787619D02*
X16763809Y8787619D01*
X16668571Y8644761D01*
X16573333Y8549523D01*
X16478095Y8501904D01*
%TO.C,D13*%
X14025714Y-25232380D02*
X14025714Y-24232380D01*
X14263809Y-24232380D01*
X14406666Y-24280000D01*
X14501904Y-24375238D01*
X14549523Y-24470476D01*
X14597142Y-24660952D01*
X14597142Y-24803809D01*
X14549523Y-24994285D01*
X14501904Y-25089523D01*
X14406666Y-25184761D01*
X14263809Y-25232380D01*
X14025714Y-25232380D01*
X15549523Y-25232380D02*
X14978095Y-25232380D01*
X15263809Y-25232380D02*
X15263809Y-24232380D01*
X15168571Y-24375238D01*
X15073333Y-24470476D01*
X14978095Y-24518095D01*
X15882857Y-24232380D02*
X16501904Y-24232380D01*
X16168571Y-24613333D01*
X16311428Y-24613333D01*
X16406666Y-24660952D01*
X16454285Y-24708571D01*
X16501904Y-24803809D01*
X16501904Y-25041904D01*
X16454285Y-25137142D01*
X16406666Y-25184761D01*
X16311428Y-25232380D01*
X16025714Y-25232380D01*
X15930476Y-25184761D01*
X15882857Y-25137142D01*
%TO.C,D12*%
X-17154285Y-25232380D02*
X-17154285Y-24232380D01*
X-16916190Y-24232380D01*
X-16773333Y-24280000D01*
X-16678095Y-24375238D01*
X-16630476Y-24470476D01*
X-16582857Y-24660952D01*
X-16582857Y-24803809D01*
X-16630476Y-24994285D01*
X-16678095Y-25089523D01*
X-16773333Y-25184761D01*
X-16916190Y-25232380D01*
X-17154285Y-25232380D01*
X-15630476Y-25232380D02*
X-16201904Y-25232380D01*
X-15916190Y-25232380D02*
X-15916190Y-24232380D01*
X-16011428Y-24375238D01*
X-16106666Y-24470476D01*
X-16201904Y-24518095D01*
X-15249523Y-24327619D02*
X-15201904Y-24280000D01*
X-15106666Y-24232380D01*
X-14868571Y-24232380D01*
X-14773333Y-24280000D01*
X-14725714Y-24327619D01*
X-14678095Y-24422857D01*
X-14678095Y-24518095D01*
X-14725714Y-24660952D01*
X-15297142Y-25232380D01*
X-14678095Y-25232380D01*
%TO.C,D11*%
X-17154285Y-22692380D02*
X-17154285Y-21692380D01*
X-16916190Y-21692380D01*
X-16773333Y-21740000D01*
X-16678095Y-21835238D01*
X-16630476Y-21930476D01*
X-16582857Y-22120952D01*
X-16582857Y-22263809D01*
X-16630476Y-22454285D01*
X-16678095Y-22549523D01*
X-16773333Y-22644761D01*
X-16916190Y-22692380D01*
X-17154285Y-22692380D01*
X-15630476Y-22692380D02*
X-16201904Y-22692380D01*
X-15916190Y-22692380D02*
X-15916190Y-21692380D01*
X-16011428Y-21835238D01*
X-16106666Y-21930476D01*
X-16201904Y-21978095D01*
X-14678095Y-22692380D02*
X-15249523Y-22692380D01*
X-14963809Y-22692380D02*
X-14963809Y-21692380D01*
X-15059047Y-21835238D01*
X-15154285Y-21930476D01*
X-15249523Y-21978095D01*
%TO.C,D10*%
X-17154285Y-20152380D02*
X-17154285Y-19152380D01*
X-16916190Y-19152380D01*
X-16773333Y-19200000D01*
X-16678095Y-19295238D01*
X-16630476Y-19390476D01*
X-16582857Y-19580952D01*
X-16582857Y-19723809D01*
X-16630476Y-19914285D01*
X-16678095Y-20009523D01*
X-16773333Y-20104761D01*
X-16916190Y-20152380D01*
X-17154285Y-20152380D01*
X-15630476Y-20152380D02*
X-16201904Y-20152380D01*
X-15916190Y-20152380D02*
X-15916190Y-19152380D01*
X-16011428Y-19295238D01*
X-16106666Y-19390476D01*
X-16201904Y-19438095D01*
X-15011428Y-19152380D02*
X-14916190Y-19152380D01*
X-14820952Y-19200000D01*
X-14773333Y-19247619D01*
X-14725714Y-19342857D01*
X-14678095Y-19533333D01*
X-14678095Y-19771428D01*
X-14725714Y-19961904D01*
X-14773333Y-20057142D01*
X-14820952Y-20104761D01*
X-14916190Y-20152380D01*
X-15011428Y-20152380D01*
X-15106666Y-20104761D01*
X-15154285Y-20057142D01*
X-15201904Y-19961904D01*
X-15249523Y-19771428D01*
X-15249523Y-19533333D01*
X-15201904Y-19342857D01*
X-15154285Y-19247619D01*
X-15106666Y-19200000D01*
X-15011428Y-19152380D01*
%TO.C,D9*%
X-16678095Y-17612380D02*
X-16678095Y-16612380D01*
X-16440000Y-16612380D01*
X-16297142Y-16660000D01*
X-16201904Y-16755238D01*
X-16154285Y-16850476D01*
X-16106666Y-17040952D01*
X-16106666Y-17183809D01*
X-16154285Y-17374285D01*
X-16201904Y-17469523D01*
X-16297142Y-17564761D01*
X-16440000Y-17612380D01*
X-16678095Y-17612380D01*
X-15630476Y-17612380D02*
X-15440000Y-17612380D01*
X-15344761Y-17564761D01*
X-15297142Y-17517142D01*
X-15201904Y-17374285D01*
X-15154285Y-17183809D01*
X-15154285Y-16802857D01*
X-15201904Y-16707619D01*
X-15249523Y-16660000D01*
X-15344761Y-16612380D01*
X-15535238Y-16612380D01*
X-15630476Y-16660000D01*
X-15678095Y-16707619D01*
X-15725714Y-16802857D01*
X-15725714Y-17040952D01*
X-15678095Y-17136190D01*
X-15630476Y-17183809D01*
X-15535238Y-17231428D01*
X-15344761Y-17231428D01*
X-15249523Y-17183809D01*
X-15201904Y-17136190D01*
X-15154285Y-17040952D01*
%TO.C,D8*%
X-16678095Y-15072380D02*
X-16678095Y-14072380D01*
X-16440000Y-14072380D01*
X-16297142Y-14120000D01*
X-16201904Y-14215238D01*
X-16154285Y-14310476D01*
X-16106666Y-14500952D01*
X-16106666Y-14643809D01*
X-16154285Y-14834285D01*
X-16201904Y-14929523D01*
X-16297142Y-15024761D01*
X-16440000Y-15072380D01*
X-16678095Y-15072380D01*
X-15535238Y-14500952D02*
X-15630476Y-14453333D01*
X-15678095Y-14405714D01*
X-15725714Y-14310476D01*
X-15725714Y-14262857D01*
X-15678095Y-14167619D01*
X-15630476Y-14120000D01*
X-15535238Y-14072380D01*
X-15344761Y-14072380D01*
X-15249523Y-14120000D01*
X-15201904Y-14167619D01*
X-15154285Y-14262857D01*
X-15154285Y-14310476D01*
X-15201904Y-14405714D01*
X-15249523Y-14453333D01*
X-15344761Y-14500952D01*
X-15535238Y-14500952D01*
X-15630476Y-14548571D01*
X-15678095Y-14596190D01*
X-15725714Y-14691428D01*
X-15725714Y-14881904D01*
X-15678095Y-14977142D01*
X-15630476Y-15024761D01*
X-15535238Y-15072380D01*
X-15344761Y-15072380D01*
X-15249523Y-15024761D01*
X-15201904Y-14977142D01*
X-15154285Y-14881904D01*
X-15154285Y-14691428D01*
X-15201904Y-14596190D01*
X-15249523Y-14548571D01*
X-15344761Y-14500952D01*
%TO.C,D7*%
X-16678095Y-12532380D02*
X-16678095Y-11532380D01*
X-16440000Y-11532380D01*
X-16297142Y-11580000D01*
X-16201904Y-11675238D01*
X-16154285Y-11770476D01*
X-16106666Y-11960952D01*
X-16106666Y-12103809D01*
X-16154285Y-12294285D01*
X-16201904Y-12389523D01*
X-16297142Y-12484761D01*
X-16440000Y-12532380D01*
X-16678095Y-12532380D01*
X-15773333Y-11532380D02*
X-15106666Y-11532380D01*
X-15535238Y-12532380D01*
%TO.C,D6*%
X-16678095Y-9992380D02*
X-16678095Y-8992380D01*
X-16440000Y-8992380D01*
X-16297142Y-9040000D01*
X-16201904Y-9135238D01*
X-16154285Y-9230476D01*
X-16106666Y-9420952D01*
X-16106666Y-9563809D01*
X-16154285Y-9754285D01*
X-16201904Y-9849523D01*
X-16297142Y-9944761D01*
X-16440000Y-9992380D01*
X-16678095Y-9992380D01*
X-15249523Y-8992380D02*
X-15440000Y-8992380D01*
X-15535238Y-9040000D01*
X-15582857Y-9087619D01*
X-15678095Y-9230476D01*
X-15725714Y-9420952D01*
X-15725714Y-9801904D01*
X-15678095Y-9897142D01*
X-15630476Y-9944761D01*
X-15535238Y-9992380D01*
X-15344761Y-9992380D01*
X-15249523Y-9944761D01*
X-15201904Y-9897142D01*
X-15154285Y-9801904D01*
X-15154285Y-9563809D01*
X-15201904Y-9468571D01*
X-15249523Y-9420952D01*
X-15344761Y-9373333D01*
X-15535238Y-9373333D01*
X-15630476Y-9420952D01*
X-15678095Y-9468571D01*
X-15725714Y-9563809D01*
%TO.C,D5-1*%
X-15233333Y-7452380D02*
X-15233333Y-6452380D01*
X-14995238Y-6452380D01*
X-14852380Y-6500000D01*
X-14757142Y-6595238D01*
X-14709523Y-6690476D01*
X-14661904Y-6880952D01*
X-14661904Y-7023809D01*
X-14709523Y-7214285D01*
X-14757142Y-7309523D01*
X-14852380Y-7404761D01*
X-14995238Y-7452380D01*
X-15233333Y-7452380D01*
X-13757142Y-6452380D02*
X-14233333Y-6452380D01*
X-14280952Y-6928571D01*
X-14233333Y-6880952D01*
X-14138095Y-6833333D01*
X-13900000Y-6833333D01*
X-13804761Y-6880952D01*
X-13757142Y-6928571D01*
X-13709523Y-7023809D01*
X-13709523Y-7261904D01*
X-13757142Y-7357142D01*
X-13804761Y-7404761D01*
X-13900000Y-7452380D01*
X-14138095Y-7452380D01*
X-14233333Y-7404761D01*
X-14280952Y-7357142D01*
X-13280952Y-7071428D02*
X-12519047Y-7071428D01*
X-11519047Y-7452380D02*
X-12090476Y-7452380D01*
X-11804761Y-7452380D02*
X-11804761Y-6452380D01*
X-11900000Y-6595238D01*
X-11995238Y-6690476D01*
X-12090476Y-6738095D01*
%TO.C,D5*%
X-17327619Y-21153095D02*
X-18327619Y-21153095D01*
X-18327619Y-20915000D01*
X-18280000Y-20772142D01*
X-18184761Y-20676904D01*
X-18089523Y-20629285D01*
X-17899047Y-20581666D01*
X-17756190Y-20581666D01*
X-17565714Y-20629285D01*
X-17470476Y-20676904D01*
X-17375238Y-20772142D01*
X-17327619Y-20915000D01*
X-17327619Y-21153095D01*
X-18327619Y-19676904D02*
X-18327619Y-20153095D01*
X-17851428Y-20200714D01*
X-17899047Y-20153095D01*
X-17946666Y-20057857D01*
X-17946666Y-19819761D01*
X-17899047Y-19724523D01*
X-17851428Y-19676904D01*
X-17756190Y-19629285D01*
X-17518095Y-19629285D01*
X-17422857Y-19676904D01*
X-17375238Y-19724523D01*
X-17327619Y-19819761D01*
X-17327619Y-20057857D01*
X-17375238Y-20153095D01*
X-17422857Y-20200714D01*
%TO.C,D4-1*%
X-15233333Y-4912380D02*
X-15233333Y-3912380D01*
X-14995238Y-3912380D01*
X-14852380Y-3960000D01*
X-14757142Y-4055238D01*
X-14709523Y-4150476D01*
X-14661904Y-4340952D01*
X-14661904Y-4483809D01*
X-14709523Y-4674285D01*
X-14757142Y-4769523D01*
X-14852380Y-4864761D01*
X-14995238Y-4912380D01*
X-15233333Y-4912380D01*
X-13804761Y-4245714D02*
X-13804761Y-4912380D01*
X-14042857Y-3864761D02*
X-14280952Y-4579047D01*
X-13661904Y-4579047D01*
X-13280952Y-4531428D02*
X-12519047Y-4531428D01*
X-11519047Y-4912380D02*
X-12090476Y-4912380D01*
X-11804761Y-4912380D02*
X-11804761Y-3912380D01*
X-11900000Y-4055238D01*
X-11995238Y-4150476D01*
X-12090476Y-4198095D01*
%TO.C,D4*%
X-19218095Y5247619D02*
X-19218095Y6247619D01*
X-18980000Y6247619D01*
X-18837142Y6200000D01*
X-18741904Y6104761D01*
X-18694285Y6009523D01*
X-18646666Y5819047D01*
X-18646666Y5676190D01*
X-18694285Y5485714D01*
X-18741904Y5390476D01*
X-18837142Y5295238D01*
X-18980000Y5247619D01*
X-19218095Y5247619D01*
X-17789523Y5914285D02*
X-17789523Y5247619D01*
X-18027619Y6295238D02*
X-18265714Y5580952D01*
X-17646666Y5580952D01*
%TO.C,D3-1*%
X-15233333Y-2372380D02*
X-15233333Y-1372380D01*
X-14995238Y-1372380D01*
X-14852380Y-1420000D01*
X-14757142Y-1515238D01*
X-14709523Y-1610476D01*
X-14661904Y-1800952D01*
X-14661904Y-1943809D01*
X-14709523Y-2134285D01*
X-14757142Y-2229523D01*
X-14852380Y-2324761D01*
X-14995238Y-2372380D01*
X-15233333Y-2372380D01*
X-14328571Y-1372380D02*
X-13709523Y-1372380D01*
X-14042857Y-1753333D01*
X-13900000Y-1753333D01*
X-13804761Y-1800952D01*
X-13757142Y-1848571D01*
X-13709523Y-1943809D01*
X-13709523Y-2181904D01*
X-13757142Y-2277142D01*
X-13804761Y-2324761D01*
X-13900000Y-2372380D01*
X-14185714Y-2372380D01*
X-14280952Y-2324761D01*
X-14328571Y-2277142D01*
X-13280952Y-1991428D02*
X-12519047Y-1991428D01*
X-11519047Y-2372380D02*
X-12090476Y-2372380D01*
X-11804761Y-2372380D02*
X-11804761Y-1372380D01*
X-11900000Y-1515238D01*
X-11995238Y-1610476D01*
X-12090476Y-1658095D01*
%TO.C,D3*%
X-19218095Y2707619D02*
X-19218095Y3707619D01*
X-18980000Y3707619D01*
X-18837142Y3660000D01*
X-18741904Y3564761D01*
X-18694285Y3469523D01*
X-18646666Y3279047D01*
X-18646666Y3136190D01*
X-18694285Y2945714D01*
X-18741904Y2850476D01*
X-18837142Y2755238D01*
X-18980000Y2707619D01*
X-19218095Y2707619D01*
X-18313333Y3707619D02*
X-17694285Y3707619D01*
X-18027619Y3326666D01*
X-17884761Y3326666D01*
X-17789523Y3279047D01*
X-17741904Y3231428D01*
X-17694285Y3136190D01*
X-17694285Y2898095D01*
X-17741904Y2802857D01*
X-17789523Y2755238D01*
X-17884761Y2707619D01*
X-18170476Y2707619D01*
X-18265714Y2755238D01*
X-18313333Y2802857D01*
%TO.C,D2*%
X-16678095Y167619D02*
X-16678095Y1167619D01*
X-16440000Y1167619D01*
X-16297142Y1120000D01*
X-16201904Y1024761D01*
X-16154285Y929523D01*
X-16106666Y739047D01*
X-16106666Y596190D01*
X-16154285Y405714D01*
X-16201904Y310476D01*
X-16297142Y215238D01*
X-16440000Y167619D01*
X-16678095Y167619D01*
X-15725714Y1072380D02*
X-15678095Y1120000D01*
X-15582857Y1167619D01*
X-15344761Y1167619D01*
X-15249523Y1120000D01*
X-15201904Y1072380D01*
X-15154285Y977142D01*
X-15154285Y881904D01*
X-15201904Y739047D01*
X-15773333Y167619D01*
X-15154285Y167619D01*
%TO.C,A7*%
X14525714Y453333D02*
X15001904Y453333D01*
X14430476Y167619D02*
X14763809Y1167619D01*
X15097142Y167619D01*
X15335238Y1167619D02*
X16001904Y1167619D01*
X15573333Y167619D01*
%TO.C,A6-1*%
X13190476Y-2086666D02*
X13666666Y-2086666D01*
X13095238Y-2372380D02*
X13428571Y-1372380D01*
X13761904Y-2372380D01*
X14523809Y-1372380D02*
X14333333Y-1372380D01*
X14238095Y-1420000D01*
X14190476Y-1467619D01*
X14095238Y-1610476D01*
X14047619Y-1800952D01*
X14047619Y-2181904D01*
X14095238Y-2277142D01*
X14142857Y-2324761D01*
X14238095Y-2372380D01*
X14428571Y-2372380D01*
X14523809Y-2324761D01*
X14571428Y-2277142D01*
X14619047Y-2181904D01*
X14619047Y-1943809D01*
X14571428Y-1848571D01*
X14523809Y-1800952D01*
X14428571Y-1753333D01*
X14238095Y-1753333D01*
X14142857Y-1800952D01*
X14095238Y-1848571D01*
X14047619Y-1943809D01*
X15047619Y-1991428D02*
X15809523Y-1991428D01*
X16809523Y-2372380D02*
X16238095Y-2372380D01*
X16523809Y-2372380D02*
X16523809Y-1372380D01*
X16428571Y-1515238D01*
X16333333Y-1610476D01*
X16238095Y-1658095D01*
%TO.C,A5-SCL1*%
X11809523Y-4666666D02*
X12285714Y-4666666D01*
X11714285Y-4952380D02*
X12047619Y-3952380D01*
X12380952Y-4952380D01*
X13190476Y-3952380D02*
X12714285Y-3952380D01*
X12666666Y-4428571D01*
X12714285Y-4380952D01*
X12809523Y-4333333D01*
X13047619Y-4333333D01*
X13142857Y-4380952D01*
X13190476Y-4428571D01*
X13238095Y-4523809D01*
X13238095Y-4761904D01*
X13190476Y-4857142D01*
X13142857Y-4904761D01*
X13047619Y-4952380D01*
X12809523Y-4952380D01*
X12714285Y-4904761D01*
X12666666Y-4857142D01*
X13666666Y-4571428D02*
X14428571Y-4571428D01*
X14857142Y-4904761D02*
X15000000Y-4952380D01*
X15238095Y-4952380D01*
X15333333Y-4904761D01*
X15380952Y-4857142D01*
X15428571Y-4761904D01*
X15428571Y-4666666D01*
X15380952Y-4571428D01*
X15333333Y-4523809D01*
X15238095Y-4476190D01*
X15047619Y-4428571D01*
X14952380Y-4380952D01*
X14904761Y-4333333D01*
X14857142Y-4238095D01*
X14857142Y-4142857D01*
X14904761Y-4047619D01*
X14952380Y-4000000D01*
X15047619Y-3952380D01*
X15285714Y-3952380D01*
X15428571Y-4000000D01*
X16428571Y-4857142D02*
X16380952Y-4904761D01*
X16238095Y-4952380D01*
X16142857Y-4952380D01*
X16000000Y-4904761D01*
X15904761Y-4809523D01*
X15857142Y-4714285D01*
X15809523Y-4523809D01*
X15809523Y-4380952D01*
X15857142Y-4190476D01*
X15904761Y-4095238D01*
X16000000Y-4000000D01*
X16142857Y-3952380D01*
X16238095Y-3952380D01*
X16380952Y-4000000D01*
X16428571Y-4047619D01*
X17333333Y-4952380D02*
X16857142Y-4952380D01*
X16857142Y-3952380D01*
X18190476Y-4952380D02*
X17619047Y-4952380D01*
X17904761Y-4952380D02*
X17904761Y-3952380D01*
X17809523Y-4095238D01*
X17714285Y-4190476D01*
X17619047Y-4238095D01*
%TO.C,A4-SDA1*%
X12025714Y-7166666D02*
X12501904Y-7166666D01*
X11930476Y-7452380D02*
X12263809Y-6452380D01*
X12597142Y-7452380D01*
X13359047Y-6785714D02*
X13359047Y-7452380D01*
X13120952Y-6404761D02*
X12882857Y-7119047D01*
X13501904Y-7119047D01*
X13882857Y-7071428D02*
X14644761Y-7071428D01*
X15073333Y-7404761D02*
X15216190Y-7452380D01*
X15454285Y-7452380D01*
X15549523Y-7404761D01*
X15597142Y-7357142D01*
X15644761Y-7261904D01*
X15644761Y-7166666D01*
X15597142Y-7071428D01*
X15549523Y-7023809D01*
X15454285Y-6976190D01*
X15263809Y-6928571D01*
X15168571Y-6880952D01*
X15120952Y-6833333D01*
X15073333Y-6738095D01*
X15073333Y-6642857D01*
X15120952Y-6547619D01*
X15168571Y-6500000D01*
X15263809Y-6452380D01*
X15501904Y-6452380D01*
X15644761Y-6500000D01*
X16073333Y-7452380D02*
X16073333Y-6452380D01*
X16311428Y-6452380D01*
X16454285Y-6500000D01*
X16549523Y-6595238D01*
X16597142Y-6690476D01*
X16644761Y-6880952D01*
X16644761Y-7023809D01*
X16597142Y-7214285D01*
X16549523Y-7309523D01*
X16454285Y-7404761D01*
X16311428Y-7452380D01*
X16073333Y-7452380D01*
X17025714Y-7166666D02*
X17501904Y-7166666D01*
X16930476Y-7452380D02*
X17263809Y-6452380D01*
X17597142Y-7452380D01*
X18454285Y-7452380D02*
X17882857Y-7452380D01*
X18168571Y-7452380D02*
X18168571Y-6452380D01*
X18073333Y-6595238D01*
X17978095Y-6690476D01*
X17882857Y-6738095D01*
%TO.C,A3*%
X14525714Y-9706666D02*
X15001904Y-9706666D01*
X14430476Y-9992380D02*
X14763809Y-8992380D01*
X15097142Y-9992380D01*
X15335238Y-8992380D02*
X15954285Y-8992380D01*
X15620952Y-9373333D01*
X15763809Y-9373333D01*
X15859047Y-9420952D01*
X15906666Y-9468571D01*
X15954285Y-9563809D01*
X15954285Y-9801904D01*
X15906666Y-9897142D01*
X15859047Y-9944761D01*
X15763809Y-9992380D01*
X15478095Y-9992380D01*
X15382857Y-9944761D01*
X15335238Y-9897142D01*
%TO.C,A2*%
X14525714Y-12246666D02*
X15001904Y-12246666D01*
X14430476Y-12532380D02*
X14763809Y-11532380D01*
X15097142Y-12532380D01*
X15382857Y-11627619D02*
X15430476Y-11580000D01*
X15525714Y-11532380D01*
X15763809Y-11532380D01*
X15859047Y-11580000D01*
X15906666Y-11627619D01*
X15954285Y-11722857D01*
X15954285Y-11818095D01*
X15906666Y-11960952D01*
X15335238Y-12532380D01*
X15954285Y-12532380D01*
%TO.C,A1*%
X14525714Y-14786666D02*
X15001904Y-14786666D01*
X14430476Y-15072380D02*
X14763809Y-14072380D01*
X15097142Y-15072380D01*
X15954285Y-15072380D02*
X15382857Y-15072380D01*
X15668571Y-15072380D02*
X15668571Y-14072380D01*
X15573333Y-14215238D01*
X15478095Y-14310476D01*
X15382857Y-14358095D01*
%TO.C,A0*%
X14525714Y-17326666D02*
X15001904Y-17326666D01*
X14430476Y-17612380D02*
X14763809Y-16612380D01*
X15097142Y-17612380D01*
X15620952Y-16612380D02*
X15716190Y-16612380D01*
X15811428Y-16660000D01*
X15859047Y-16707619D01*
X15906666Y-16802857D01*
X15954285Y-16993333D01*
X15954285Y-17231428D01*
X15906666Y-17421904D01*
X15859047Y-17517142D01*
X15811428Y-17564761D01*
X15716190Y-17612380D01*
X15620952Y-17612380D01*
X15525714Y-17564761D01*
X15478095Y-17517142D01*
X15430476Y-17421904D01*
X15382857Y-17231428D01*
X15382857Y-16993333D01*
X15430476Y-16802857D01*
X15478095Y-16707619D01*
X15525714Y-16660000D01*
X15620952Y-16612380D01*
D11*
%TO.C,5V1*%
X8830000Y3160000D02*
X8830000Y4490000D01*
X8830000Y1890000D02*
X8830000Y1830000D01*
X11490000Y1890000D02*
X11490000Y1830000D01*
X8830000Y1830000D02*
X11490000Y1830000D01*
X8830000Y1890000D02*
X11490000Y1890000D01*
X8830000Y4490000D02*
X10160000Y4490000D01*
%TO.C,REF\u002A\u002A*%
X-11500000Y-4500000D02*
G75*
G03*
X-11500000Y-4500000I-3500000J0D01*
G01*
X21000000Y22500000D02*
G75*
G03*
X21000000Y22500000I-6000000J0D01*
G01*
X-9000000Y22500000D02*
G75*
G03*
X-9000000Y22500000I-6000000J0D01*
G01*
X18500000Y-4500000D02*
G75*
G03*
X18500000Y-4500000I-3500000J0D01*
G01*
%TO.C,RSDA1*%
X19150000Y14050000D02*
X18820000Y14050000D01*
X16410000Y7510000D02*
X16410000Y14050000D01*
X19150000Y7510000D02*
X19150000Y14050000D01*
X18820000Y7510000D02*
X19150000Y7510000D01*
X16740000Y7510000D02*
X16410000Y7510000D01*
X16410000Y14050000D02*
X16740000Y14050000D01*
%TO.C,RSCL1*%
X13870000Y14050000D02*
X14200000Y14050000D01*
X14200000Y7510000D02*
X13870000Y7510000D01*
X16280000Y7510000D02*
X16610000Y7510000D01*
X16610000Y7510000D02*
X16610000Y14050000D01*
X13870000Y7510000D02*
X13870000Y14050000D01*
X16610000Y14050000D02*
X16280000Y14050000D01*
%TO.C,TX1*%
X-11430000Y9450000D02*
X-14030000Y9450000D01*
X-8830000Y12110000D02*
X-8830000Y10780000D01*
X-11430000Y12110000D02*
X-11430000Y9450000D01*
X-11430000Y12110000D02*
X-14030000Y12110000D01*
X-14030000Y12110000D02*
X-14030000Y9450000D01*
X-10160000Y12110000D02*
X-8830000Y12110000D01*
%TO.C,SDA1*%
X-1305489Y26080000D02*
X-3965489Y26080000D01*
X-1305489Y20940000D02*
X-1305489Y26080000D01*
X-1305489Y19670000D02*
X-1305489Y18340000D01*
X-3965489Y20940000D02*
X-3965489Y26080000D01*
X-1305489Y18340000D02*
X-2635489Y18340000D01*
X-1305489Y20940000D02*
X-3965489Y20940000D01*
%TO.C,SDA0*%
X6410000Y26080000D02*
X3750000Y26080000D01*
X6410000Y20940000D02*
X6410000Y26080000D01*
X6410000Y19670000D02*
X6410000Y18340000D01*
X3750000Y20940000D02*
X3750000Y26080000D01*
X6410000Y18340000D02*
X5080000Y18340000D01*
X6410000Y20940000D02*
X3750000Y20940000D01*
%TO.C,I2C0*%
X-3845489Y26080000D02*
X-6505489Y26080000D01*
X-3845489Y20940000D02*
X-3845489Y26080000D01*
X-3845489Y19670000D02*
X-3845489Y18340000D01*
X-6505489Y20940000D02*
X-6505489Y26080000D01*
X-3845489Y18340000D02*
X-5175489Y18340000D01*
X-3845489Y20940000D02*
X-6505489Y20940000D01*
%TO.C,I2C1*%
X3870000Y26080000D02*
X1210000Y26080000D01*
X3870000Y20940000D02*
X3870000Y26080000D01*
X3870000Y19670000D02*
X3870000Y18340000D01*
X1210000Y20940000D02*
X1210000Y26080000D01*
X3870000Y18340000D02*
X2540000Y18340000D01*
X3870000Y20940000D02*
X1210000Y20940000D01*
%TO.C,RX0*%
X-10160000Y9570000D02*
X-8830000Y9570000D01*
X-14030000Y9570000D02*
X-14030000Y6910000D01*
X-11430000Y9570000D02*
X-14030000Y9570000D01*
X-11430000Y9570000D02*
X-11430000Y6910000D01*
X-8830000Y9570000D02*
X-8830000Y8240000D01*
X-11430000Y6910000D02*
X-14030000Y6910000D01*
%TO.C,GND1*%
X8830000Y8240000D02*
X8830000Y9570000D01*
X8830000Y6970000D02*
X8830000Y6910000D01*
X11490000Y6970000D02*
X11490000Y6910000D01*
X8830000Y6910000D02*
X11490000Y6910000D01*
X8830000Y6970000D02*
X11490000Y6970000D01*
X8830000Y9570000D02*
X10160000Y9570000D01*
%TO.C,D13*%
X10160000Y-26110000D02*
X8830000Y-26110000D01*
X14030000Y-26110000D02*
X14030000Y-23450000D01*
X11430000Y-26110000D02*
X14030000Y-26110000D01*
X11430000Y-26110000D02*
X11430000Y-23450000D01*
X8830000Y-26110000D02*
X8830000Y-24780000D01*
X11430000Y-23450000D02*
X14030000Y-23450000D01*
%TO.C,D12*%
X-11430000Y-26110000D02*
X-14030000Y-26110000D01*
X-8830000Y-23450000D02*
X-8830000Y-24780000D01*
X-11430000Y-23450000D02*
X-11430000Y-26110000D01*
X-11430000Y-23450000D02*
X-14030000Y-23450000D01*
X-14030000Y-23450000D02*
X-14030000Y-26110000D01*
X-10160000Y-23450000D02*
X-8830000Y-23450000D01*
%TO.C,D11*%
X-11430000Y-23570000D02*
X-14030000Y-23570000D01*
X-8830000Y-20910000D02*
X-8830000Y-22240000D01*
X-11430000Y-20910000D02*
X-11430000Y-23570000D01*
X-11430000Y-20910000D02*
X-14030000Y-20910000D01*
X-14030000Y-20910000D02*
X-14030000Y-23570000D01*
X-10160000Y-20910000D02*
X-8830000Y-20910000D01*
%TO.C,D10*%
X-11430000Y-21030000D02*
X-14030000Y-21030000D01*
X-8830000Y-18370000D02*
X-8830000Y-19700000D01*
X-11430000Y-18370000D02*
X-11430000Y-21030000D01*
X-11430000Y-18370000D02*
X-14030000Y-18370000D01*
X-14030000Y-18370000D02*
X-14030000Y-21030000D01*
X-10160000Y-18370000D02*
X-8830000Y-18370000D01*
%TO.C,D9*%
X-11430000Y-18490000D02*
X-14030000Y-18490000D01*
X-8830000Y-15830000D02*
X-8830000Y-17160000D01*
X-11430000Y-15830000D02*
X-11430000Y-18490000D01*
X-11430000Y-15830000D02*
X-14030000Y-15830000D01*
X-14030000Y-15830000D02*
X-14030000Y-18490000D01*
X-10160000Y-15830000D02*
X-8830000Y-15830000D01*
%TO.C,D8*%
X-11430000Y-15950000D02*
X-14030000Y-15950000D01*
X-8830000Y-13290000D02*
X-8830000Y-14620000D01*
X-11430000Y-13290000D02*
X-11430000Y-15950000D01*
X-11430000Y-13290000D02*
X-14030000Y-13290000D01*
X-14030000Y-13290000D02*
X-14030000Y-15950000D01*
X-10160000Y-13290000D02*
X-8830000Y-13290000D01*
%TO.C,D7*%
X-11430000Y-13410000D02*
X-14030000Y-13410000D01*
X-8830000Y-10750000D02*
X-8830000Y-12080000D01*
X-11430000Y-10750000D02*
X-11430000Y-13410000D01*
X-11430000Y-10750000D02*
X-14030000Y-10750000D01*
X-14030000Y-10750000D02*
X-14030000Y-13410000D01*
X-10160000Y-10750000D02*
X-8830000Y-10750000D01*
%TO.C,D6*%
X-11430000Y-10870000D02*
X-14030000Y-10870000D01*
X-8830000Y-8210000D02*
X-8830000Y-9540000D01*
X-11430000Y-8210000D02*
X-11430000Y-10870000D01*
X-11430000Y-8210000D02*
X-14030000Y-8210000D01*
X-14030000Y-8210000D02*
X-14030000Y-10870000D01*
X-10160000Y-8210000D02*
X-8830000Y-8210000D01*
%TO.C,D5-1*%
X-11490000Y-7000000D02*
X-11490000Y-5670000D01*
X-11490000Y-8270000D02*
X-11490000Y-8330000D01*
X-8830000Y-8270000D02*
X-8830000Y-8330000D01*
X-11490000Y-8330000D02*
X-8830000Y-8330000D01*
X-11490000Y-8270000D02*
X-8830000Y-8270000D01*
X-11490000Y-5670000D02*
X-10160000Y-5670000D01*
%TO.C,D5*%
X-19110000Y-18505000D02*
X-16450000Y-18505000D01*
X-19110000Y-13365000D02*
X-19110000Y-18505000D01*
X-19110000Y-12095000D02*
X-19110000Y-10765000D01*
X-16450000Y-13365000D02*
X-16450000Y-18505000D01*
X-19110000Y-10765000D02*
X-17780000Y-10765000D01*
X-19110000Y-13365000D02*
X-16450000Y-13365000D01*
%TO.C,D4-1*%
X-11490000Y-4460000D02*
X-11490000Y-3130000D01*
X-11490000Y-5730000D02*
X-11490000Y-5790000D01*
X-8830000Y-5730000D02*
X-8830000Y-5790000D01*
X-11490000Y-5790000D02*
X-8830000Y-5790000D01*
X-11490000Y-5730000D02*
X-8830000Y-5730000D01*
X-11490000Y-3130000D02*
X-10160000Y-3130000D01*
%TO.C,D4*%
X-11430000Y7030000D02*
X-11430000Y4370000D01*
X-8830000Y7030000D02*
X-8830000Y5700000D01*
X-11430000Y4370000D02*
X-16570000Y4370000D01*
X-10160000Y7030000D02*
X-8830000Y7030000D01*
X-11430000Y7030000D02*
X-16570000Y7030000D01*
X-16570000Y7030000D02*
X-16570000Y4370000D01*
%TO.C,D3-1*%
X-11490000Y-1920000D02*
X-11490000Y-590000D01*
X-11490000Y-3190000D02*
X-11490000Y-3250000D01*
X-8830000Y-3190000D02*
X-8830000Y-3250000D01*
X-11490000Y-3250000D02*
X-8830000Y-3250000D01*
X-11490000Y-3190000D02*
X-8830000Y-3190000D01*
X-11490000Y-590000D02*
X-10160000Y-590000D01*
%TO.C,D3*%
X-11430000Y4490000D02*
X-11430000Y1830000D01*
X-8830000Y4490000D02*
X-8830000Y3160000D01*
X-11430000Y1830000D02*
X-16570000Y1830000D01*
X-10160000Y4490000D02*
X-8830000Y4490000D01*
X-11430000Y4490000D02*
X-16570000Y4490000D01*
X-16570000Y4490000D02*
X-16570000Y1830000D01*
%TO.C,D2*%
X-11430000Y1950000D02*
X-8830000Y1950000D01*
X-14030000Y-710000D02*
X-14030000Y620000D01*
X-11430000Y-710000D02*
X-11430000Y1950000D01*
X-11430000Y-710000D02*
X-8830000Y-710000D01*
X-8830000Y-710000D02*
X-8830000Y1950000D01*
X-12700000Y-710000D02*
X-14030000Y-710000D01*
%TO.C,A7*%
X11430000Y1950000D02*
X14030000Y1950000D01*
X8830000Y-710000D02*
X8830000Y620000D01*
X11430000Y-710000D02*
X11430000Y1950000D01*
X11430000Y-710000D02*
X14030000Y-710000D01*
X14030000Y-710000D02*
X14030000Y1950000D01*
X10160000Y-710000D02*
X8830000Y-710000D01*
%TO.C,A6-1*%
X8830000Y-1920000D02*
X8830000Y-590000D01*
X8830000Y-3190000D02*
X8830000Y-3250000D01*
X11490000Y-3190000D02*
X11490000Y-3250000D01*
X8830000Y-3250000D02*
X11490000Y-3250000D01*
X8830000Y-3190000D02*
X11490000Y-3190000D01*
X8830000Y-590000D02*
X10160000Y-590000D01*
%TO.C,A5-SCL1*%
X8830000Y-4460000D02*
X8830000Y-3130000D01*
X8830000Y-5730000D02*
X8830000Y-5790000D01*
X11490000Y-5730000D02*
X11490000Y-5790000D01*
X8830000Y-5790000D02*
X11490000Y-5790000D01*
X8830000Y-5730000D02*
X11490000Y-5730000D01*
X8830000Y-3130000D02*
X10160000Y-3130000D01*
%TO.C,A4-SDA1*%
X8830000Y-7000000D02*
X8830000Y-5670000D01*
X8830000Y-8270000D02*
X8830000Y-8330000D01*
X11490000Y-8270000D02*
X11490000Y-8330000D01*
X8830000Y-8330000D02*
X11490000Y-8330000D01*
X8830000Y-8270000D02*
X11490000Y-8270000D01*
X8830000Y-5670000D02*
X10160000Y-5670000D01*
%TO.C,A3*%
X11430000Y-8210000D02*
X14030000Y-8210000D01*
X8830000Y-10870000D02*
X8830000Y-9540000D01*
X11430000Y-10870000D02*
X11430000Y-8210000D01*
X11430000Y-10870000D02*
X14030000Y-10870000D01*
X14030000Y-10870000D02*
X14030000Y-8210000D01*
X10160000Y-10870000D02*
X8830000Y-10870000D01*
%TO.C,A2*%
X11430000Y-10750000D02*
X14030000Y-10750000D01*
X8830000Y-13410000D02*
X8830000Y-12080000D01*
X11430000Y-13410000D02*
X11430000Y-10750000D01*
X11430000Y-13410000D02*
X14030000Y-13410000D01*
X14030000Y-13410000D02*
X14030000Y-10750000D01*
X10160000Y-13410000D02*
X8830000Y-13410000D01*
%TO.C,A1*%
X11430000Y-13290000D02*
X14030000Y-13290000D01*
X8830000Y-15950000D02*
X8830000Y-14620000D01*
X11430000Y-15950000D02*
X11430000Y-13290000D01*
X11430000Y-15950000D02*
X14030000Y-15950000D01*
X14030000Y-15950000D02*
X14030000Y-13290000D01*
X10160000Y-15950000D02*
X8830000Y-15950000D01*
%TO.C,A0*%
X11430000Y-15830000D02*
X14030000Y-15830000D01*
X8830000Y-18490000D02*
X8830000Y-17160000D01*
X11430000Y-18490000D02*
X11430000Y-15830000D01*
X11430000Y-18490000D02*
X14030000Y-18490000D01*
X14030000Y-18490000D02*
X14030000Y-15830000D01*
X10160000Y-18490000D02*
X8830000Y-18490000D01*
%TD*%
M02*
