M48
; DRILL file {KiCad (6.0.5)} date Wed Jun  1 19:50:58 2022
; FORMAT={-:-/ absolute / inch / decimal}
; #@! TF.CreationDate,2022-06-01T19:50:58+01:00
; #@! TF.GenerationSoftware,Kicad,Pcbnew,(6.0.5)
; #@! TF.FileFunction,Plated,1,2,PTH
FMAT,2
INCH
; #@! TA.AperFunction,Plated,PTH,ComponentDrill
T1C0.0315
; #@! TA.AperFunction,Plated,PTH,ComponentDrill
T2C0.0394
%
G90
G05
T1
X0.6Y0.5744
X0.6Y0.2744
X0.7Y0.5744
X0.7Y0.2744
T2
X-0.7Y-0.4762
X-0.7Y-0.5762
X-0.7Y-0.6762
X-0.6Y0.2244
X-0.6Y0.1244
X-0.5Y0.4244
X-0.5Y0.3244
X-0.5Y0.2244
X-0.5Y0.1244
X-0.5Y0.0244
X-0.5Y-0.3756
X-0.5Y-0.4756
X-0.5Y-0.5756
X-0.5Y-0.6756
X-0.5Y-0.7756
X-0.5Y-0.8756
X-0.5Y-0.9756
X-0.4Y0.4244
X-0.4Y0.3244
X-0.4Y0.2244
X-0.4Y0.1244
X-0.4Y0.0244
X-0.4Y-0.0756
X-0.4Y-0.1756
X-0.4Y-0.2756
X-0.4Y-0.3756
X-0.4Y-0.4756
X-0.4Y-0.5756
X-0.4Y-0.6756
X-0.4Y-0.7756
X-0.4Y-0.8756
X-0.4Y-0.9756
X-0.2038Y0.9744
X-0.2038Y0.8744
X-0.2038Y0.7744
X-0.1038Y0.9744
X-0.1038Y0.8744
X-0.1038Y0.7744
X0.1Y0.9744
X0.1Y0.8744
X0.1Y0.7744
X0.2Y0.9744
X0.2Y0.8744
X0.2Y0.7744
X0.4Y0.3244
X0.4Y0.1244
X0.4Y0.0244
X0.4Y-0.0756
X0.4Y-0.1756
X0.4Y-0.2756
X0.4Y-0.3756
X0.4Y-0.4756
X0.4Y-0.5756
X0.4Y-0.6756
X0.4Y-0.9756
X0.5Y0.0244
X0.5Y-0.3756
X0.5Y-0.4756
X0.5Y-0.5756
X0.5Y-0.6756
X0.5Y-0.9756
T0
M30
